<mxfile host="app.diagrams.net" modified="2023-07-02T03:30:18.099Z" agent="Mozilla/5.0 (Windows NT 10.0; Win64; x64) AppleWebKit/537.36 (KHTML, like Gecko) Chrome/113.0.0.0 Safari/537.36 OPR/99.0.0.0" etag="XKaZivVtpxMsiq7l-s_T" version="21.5.0" type="onedrive">
  <diagram name="PÃ¡gina-1" id="g4Su_9RbvXeR_ZrpSomz">
    <mxGraphModel grid="0" page="0" gridSize="10" guides="1" tooltips="1" connect="1" arrows="1" fold="1" pageScale="1" pageWidth="827" pageHeight="1169" math="0" shadow="0">
      <root>
        <mxCell id="0" />
        <mxCell id="1" parent="0" />
        <mxCell id="cN46fnsZ54RdRkZos_jZ-663" value="D_MUNICIPIO" style="shape=table;startSize=30;container=1;collapsible=1;childLayout=tableLayout;fixedRows=1;rowLines=0;fontStyle=1;align=center;resizeLast=1;html=1;" vertex="1" parent="1">
          <mxGeometry x="-459" y="160" width="264.75" height="600" as="geometry" />
        </mxCell>
        <mxCell id="cN46fnsZ54RdRkZos_jZ-664" value="" style="shape=tableRow;horizontal=0;startSize=0;swimlaneHead=0;swimlaneBody=0;fillColor=none;collapsible=0;dropTarget=0;points=[[0,0.5],[1,0.5]];portConstraint=eastwest;top=0;left=0;right=0;bottom=1;" vertex="1" parent="cN46fnsZ54RdRkZos_jZ-663">
          <mxGeometry y="30" width="264.75" height="30" as="geometry" />
        </mxCell>
        <mxCell id="cN46fnsZ54RdRkZos_jZ-665" value="int" style="shape=partialRectangle;connectable=0;fillColor=none;top=0;left=0;bottom=0;right=0;fontStyle=1;overflow=hidden;whiteSpace=wrap;html=1;" vertex="1" parent="cN46fnsZ54RdRkZos_jZ-664">
          <mxGeometry width="63.11999999999989" height="30" as="geometry">
            <mxRectangle width="63.11999999999989" height="30" as="alternateBounds" />
          </mxGeometry>
        </mxCell>
        <mxCell id="cN46fnsZ54RdRkZos_jZ-666" value="SK_MUNICIPIO" style="shape=partialRectangle;connectable=0;fillColor=none;top=0;left=0;bottom=0;right=0;align=left;spacingLeft=6;fontStyle=5;overflow=hidden;whiteSpace=wrap;html=1;" vertex="1" parent="cN46fnsZ54RdRkZos_jZ-664">
          <mxGeometry x="63.11999999999989" width="201.6300000000001" height="30" as="geometry">
            <mxRectangle width="201.6300000000001" height="30" as="alternateBounds" />
          </mxGeometry>
        </mxCell>
        <mxCell id="cN46fnsZ54RdRkZos_jZ-667" value="" style="shape=tableRow;horizontal=0;startSize=0;swimlaneHead=0;swimlaneBody=0;fillColor=none;collapsible=0;dropTarget=0;points=[[0,0.5],[1,0.5]];portConstraint=eastwest;top=0;left=0;right=0;bottom=0;" vertex="1" parent="cN46fnsZ54RdRkZos_jZ-663">
          <mxGeometry y="60" width="264.75" height="30" as="geometry" />
        </mxCell>
        <mxCell id="cN46fnsZ54RdRkZos_jZ-668" value="int" style="shape=partialRectangle;connectable=0;fillColor=none;top=0;left=0;bottom=0;right=0;editable=1;overflow=hidden;whiteSpace=wrap;html=1;" vertex="1" parent="cN46fnsZ54RdRkZos_jZ-667">
          <mxGeometry width="63.11999999999989" height="30" as="geometry">
            <mxRectangle width="63.11999999999989" height="30" as="alternateBounds" />
          </mxGeometry>
        </mxCell>
        <mxCell id="cN46fnsZ54RdRkZos_jZ-669" value="CD_MUNICIPIO" style="shape=partialRectangle;connectable=0;fillColor=none;top=0;left=0;bottom=0;right=0;align=left;spacingLeft=6;overflow=hidden;whiteSpace=wrap;html=1;" vertex="1" parent="cN46fnsZ54RdRkZos_jZ-667">
          <mxGeometry x="63.11999999999989" width="201.6300000000001" height="30" as="geometry">
            <mxRectangle width="201.6300000000001" height="30" as="alternateBounds" />
          </mxGeometry>
        </mxCell>
        <mxCell id="cN46fnsZ54RdRkZos_jZ-670" value="" style="shape=tableRow;horizontal=0;startSize=0;swimlaneHead=0;swimlaneBody=0;fillColor=none;collapsible=0;dropTarget=0;points=[[0,0.5],[1,0.5]];portConstraint=eastwest;top=0;left=0;right=0;bottom=0;" vertex="1" parent="cN46fnsZ54RdRkZos_jZ-663">
          <mxGeometry y="90" width="264.75" height="30" as="geometry" />
        </mxCell>
        <mxCell id="cN46fnsZ54RdRkZos_jZ-671" value="int" style="shape=partialRectangle;connectable=0;fillColor=none;top=0;left=0;bottom=0;right=0;editable=1;overflow=hidden;whiteSpace=wrap;html=1;" vertex="1" parent="cN46fnsZ54RdRkZos_jZ-670">
          <mxGeometry width="63.11999999999989" height="30" as="geometry">
            <mxRectangle width="63.11999999999989" height="30" as="alternateBounds" />
          </mxGeometry>
        </mxCell>
        <mxCell id="cN46fnsZ54RdRkZos_jZ-672" value="CD_MUNICIPIO_NORMALIZADO" style="shape=partialRectangle;connectable=0;fillColor=none;top=0;left=0;bottom=0;right=0;align=left;spacingLeft=6;overflow=hidden;whiteSpace=wrap;html=1;" vertex="1" parent="cN46fnsZ54RdRkZos_jZ-670">
          <mxGeometry x="63.11999999999989" width="201.6300000000001" height="30" as="geometry">
            <mxRectangle width="201.6300000000001" height="30" as="alternateBounds" />
          </mxGeometry>
        </mxCell>
        <mxCell id="cN46fnsZ54RdRkZos_jZ-673" value="" style="shape=tableRow;horizontal=0;startSize=0;swimlaneHead=0;swimlaneBody=0;fillColor=none;collapsible=0;dropTarget=0;points=[[0,0.5],[1,0.5]];portConstraint=eastwest;top=0;left=0;right=0;bottom=0;" vertex="1" parent="cN46fnsZ54RdRkZos_jZ-663">
          <mxGeometry y="120" width="264.75" height="30" as="geometry" />
        </mxCell>
        <mxCell id="cN46fnsZ54RdRkZos_jZ-674" value="text" style="shape=partialRectangle;connectable=0;fillColor=none;top=0;left=0;bottom=0;right=0;editable=1;overflow=hidden;whiteSpace=wrap;html=1;" vertex="1" parent="cN46fnsZ54RdRkZos_jZ-673">
          <mxGeometry width="63.11999999999989" height="30" as="geometry">
            <mxRectangle width="63.11999999999989" height="30" as="alternateBounds" />
          </mxGeometry>
        </mxCell>
        <mxCell id="cN46fnsZ54RdRkZos_jZ-675" value="NO_MUNICIPIO" style="shape=partialRectangle;connectable=0;fillColor=none;top=0;left=0;bottom=0;right=0;align=left;spacingLeft=6;overflow=hidden;whiteSpace=wrap;html=1;" vertex="1" parent="cN46fnsZ54RdRkZos_jZ-673">
          <mxGeometry x="63.11999999999989" width="201.6300000000001" height="30" as="geometry">
            <mxRectangle width="201.6300000000001" height="30" as="alternateBounds" />
          </mxGeometry>
        </mxCell>
        <mxCell id="cN46fnsZ54RdRkZos_jZ-676" value="" style="shape=tableRow;horizontal=0;startSize=0;swimlaneHead=0;swimlaneBody=0;fillColor=none;collapsible=0;dropTarget=0;points=[[0,0.5],[1,0.5]];portConstraint=eastwest;top=0;left=0;right=0;bottom=0;" vertex="1" parent="cN46fnsZ54RdRkZos_jZ-663">
          <mxGeometry y="150" width="264.75" height="30" as="geometry" />
        </mxCell>
        <mxCell id="cN46fnsZ54RdRkZos_jZ-677" value="int" style="shape=partialRectangle;connectable=0;fillColor=none;top=0;left=0;bottom=0;right=0;editable=1;overflow=hidden;whiteSpace=wrap;html=1;" vertex="1" parent="cN46fnsZ54RdRkZos_jZ-676">
          <mxGeometry width="63.11999999999989" height="30" as="geometry">
            <mxRectangle width="63.11999999999989" height="30" as="alternateBounds" />
          </mxGeometry>
        </mxCell>
        <mxCell id="cN46fnsZ54RdRkZos_jZ-678" value="CD_MICRORREGIAO" style="shape=partialRectangle;connectable=0;fillColor=none;top=0;left=0;bottom=0;right=0;align=left;spacingLeft=6;overflow=hidden;whiteSpace=wrap;html=1;" vertex="1" parent="cN46fnsZ54RdRkZos_jZ-676">
          <mxGeometry x="63.11999999999989" width="201.6300000000001" height="30" as="geometry">
            <mxRectangle width="201.6300000000001" height="30" as="alternateBounds" />
          </mxGeometry>
        </mxCell>
        <mxCell id="cN46fnsZ54RdRkZos_jZ-679" value="" style="shape=tableRow;horizontal=0;startSize=0;swimlaneHead=0;swimlaneBody=0;fillColor=none;collapsible=0;dropTarget=0;points=[[0,0.5],[1,0.5]];portConstraint=eastwest;top=0;left=0;right=0;bottom=0;" vertex="1" parent="cN46fnsZ54RdRkZos_jZ-663">
          <mxGeometry y="180" width="264.75" height="30" as="geometry" />
        </mxCell>
        <mxCell id="cN46fnsZ54RdRkZos_jZ-680" value="&lt;span style=&quot;color: rgb(0, 0, 0); font-family: Helvetica; font-size: 12px; font-style: normal; font-variant-ligatures: normal; font-variant-caps: normal; font-weight: 400; letter-spacing: normal; orphans: 2; text-align: center; text-indent: 0px; text-transform: none; widows: 2; word-spacing: 0px; -webkit-text-stroke-width: 0px; background-color: rgb(251, 251, 251); text-decoration-thickness: initial; text-decoration-style: initial; text-decoration-color: initial; float: none; display: inline !important;&quot;&gt;text&lt;/span&gt;" style="shape=partialRectangle;connectable=0;fillColor=none;top=0;left=0;bottom=0;right=0;editable=1;overflow=hidden;whiteSpace=wrap;html=1;" vertex="1" parent="cN46fnsZ54RdRkZos_jZ-679">
          <mxGeometry width="63.11999999999989" height="30" as="geometry">
            <mxRectangle width="63.11999999999989" height="30" as="alternateBounds" />
          </mxGeometry>
        </mxCell>
        <mxCell id="cN46fnsZ54RdRkZos_jZ-681" value="NO_MICRORREGIAO" style="shape=partialRectangle;connectable=0;fillColor=none;top=0;left=0;bottom=0;right=0;align=left;spacingLeft=6;overflow=hidden;whiteSpace=wrap;html=1;" vertex="1" parent="cN46fnsZ54RdRkZos_jZ-679">
          <mxGeometry x="63.11999999999989" width="201.6300000000001" height="30" as="geometry">
            <mxRectangle width="201.6300000000001" height="30" as="alternateBounds" />
          </mxGeometry>
        </mxCell>
        <mxCell id="cN46fnsZ54RdRkZos_jZ-682" value="" style="shape=tableRow;horizontal=0;startSize=0;swimlaneHead=0;swimlaneBody=0;fillColor=none;collapsible=0;dropTarget=0;points=[[0,0.5],[1,0.5]];portConstraint=eastwest;top=0;left=0;right=0;bottom=0;" vertex="1" parent="cN46fnsZ54RdRkZos_jZ-663">
          <mxGeometry y="210" width="264.75" height="30" as="geometry" />
        </mxCell>
        <mxCell id="cN46fnsZ54RdRkZos_jZ-683" value="int" style="shape=partialRectangle;connectable=0;fillColor=none;top=0;left=0;bottom=0;right=0;editable=1;overflow=hidden;whiteSpace=wrap;html=1;" vertex="1" parent="cN46fnsZ54RdRkZos_jZ-682">
          <mxGeometry width="63.11999999999989" height="30" as="geometry">
            <mxRectangle width="63.11999999999989" height="30" as="alternateBounds" />
          </mxGeometry>
        </mxCell>
        <mxCell id="cN46fnsZ54RdRkZos_jZ-684" value="CD_MESORREGIAO" style="shape=partialRectangle;connectable=0;fillColor=none;top=0;left=0;bottom=0;right=0;align=left;spacingLeft=6;overflow=hidden;whiteSpace=wrap;html=1;" vertex="1" parent="cN46fnsZ54RdRkZos_jZ-682">
          <mxGeometry x="63.11999999999989" width="201.6300000000001" height="30" as="geometry">
            <mxRectangle width="201.6300000000001" height="30" as="alternateBounds" />
          </mxGeometry>
        </mxCell>
        <mxCell id="cN46fnsZ54RdRkZos_jZ-685" value="" style="shape=tableRow;horizontal=0;startSize=0;swimlaneHead=0;swimlaneBody=0;fillColor=none;collapsible=0;dropTarget=0;points=[[0,0.5],[1,0.5]];portConstraint=eastwest;top=0;left=0;right=0;bottom=0;" vertex="1" parent="cN46fnsZ54RdRkZos_jZ-663">
          <mxGeometry y="240" width="264.75" height="30" as="geometry" />
        </mxCell>
        <mxCell id="cN46fnsZ54RdRkZos_jZ-686" value="text" style="shape=partialRectangle;connectable=0;fillColor=none;top=0;left=0;bottom=0;right=0;editable=1;overflow=hidden;whiteSpace=wrap;html=1;" vertex="1" parent="cN46fnsZ54RdRkZos_jZ-685">
          <mxGeometry width="63.11999999999989" height="30" as="geometry">
            <mxRectangle width="63.11999999999989" height="30" as="alternateBounds" />
          </mxGeometry>
        </mxCell>
        <mxCell id="cN46fnsZ54RdRkZos_jZ-687" value="NO_MESORREGIAO" style="shape=partialRectangle;connectable=0;fillColor=none;top=0;left=0;bottom=0;right=0;align=left;spacingLeft=6;overflow=hidden;whiteSpace=wrap;html=1;" vertex="1" parent="cN46fnsZ54RdRkZos_jZ-685">
          <mxGeometry x="63.11999999999989" width="201.6300000000001" height="30" as="geometry">
            <mxRectangle width="201.6300000000001" height="30" as="alternateBounds" />
          </mxGeometry>
        </mxCell>
        <mxCell id="cN46fnsZ54RdRkZos_jZ-688" value="" style="shape=tableRow;horizontal=0;startSize=0;swimlaneHead=0;swimlaneBody=0;fillColor=none;collapsible=0;dropTarget=0;points=[[0,0.5],[1,0.5]];portConstraint=eastwest;top=0;left=0;right=0;bottom=0;" vertex="1" parent="cN46fnsZ54RdRkZos_jZ-663">
          <mxGeometry y="270" width="264.75" height="30" as="geometry" />
        </mxCell>
        <mxCell id="cN46fnsZ54RdRkZos_jZ-689" value="int" style="shape=partialRectangle;connectable=0;fillColor=none;top=0;left=0;bottom=0;right=0;editable=1;overflow=hidden;whiteSpace=wrap;html=1;" vertex="1" parent="cN46fnsZ54RdRkZos_jZ-688">
          <mxGeometry width="63.11999999999989" height="30" as="geometry">
            <mxRectangle width="63.11999999999989" height="30" as="alternateBounds" />
          </mxGeometry>
        </mxCell>
        <mxCell id="cN46fnsZ54RdRkZos_jZ-690" value="CD_REGIAO_IMEDIATA" style="shape=partialRectangle;connectable=0;fillColor=none;top=0;left=0;bottom=0;right=0;align=left;spacingLeft=6;overflow=hidden;whiteSpace=wrap;html=1;" vertex="1" parent="cN46fnsZ54RdRkZos_jZ-688">
          <mxGeometry x="63.11999999999989" width="201.6300000000001" height="30" as="geometry">
            <mxRectangle width="201.6300000000001" height="30" as="alternateBounds" />
          </mxGeometry>
        </mxCell>
        <mxCell id="cN46fnsZ54RdRkZos_jZ-691" value="" style="shape=tableRow;horizontal=0;startSize=0;swimlaneHead=0;swimlaneBody=0;fillColor=none;collapsible=0;dropTarget=0;points=[[0,0.5],[1,0.5]];portConstraint=eastwest;top=0;left=0;right=0;bottom=0;" vertex="1" parent="cN46fnsZ54RdRkZos_jZ-663">
          <mxGeometry y="300" width="264.75" height="30" as="geometry" />
        </mxCell>
        <mxCell id="cN46fnsZ54RdRkZos_jZ-692" value="text" style="shape=partialRectangle;connectable=0;fillColor=none;top=0;left=0;bottom=0;right=0;editable=1;overflow=hidden;whiteSpace=wrap;html=1;" vertex="1" parent="cN46fnsZ54RdRkZos_jZ-691">
          <mxGeometry width="63.11999999999989" height="30" as="geometry">
            <mxRectangle width="63.11999999999989" height="30" as="alternateBounds" />
          </mxGeometry>
        </mxCell>
        <mxCell id="cN46fnsZ54RdRkZos_jZ-693" value="NO_REGIAO_IMEDIATA" style="shape=partialRectangle;connectable=0;fillColor=none;top=0;left=0;bottom=0;right=0;align=left;spacingLeft=6;overflow=hidden;whiteSpace=wrap;html=1;" vertex="1" parent="cN46fnsZ54RdRkZos_jZ-691">
          <mxGeometry x="63.11999999999989" width="201.6300000000001" height="30" as="geometry">
            <mxRectangle width="201.6300000000001" height="30" as="alternateBounds" />
          </mxGeometry>
        </mxCell>
        <mxCell id="cN46fnsZ54RdRkZos_jZ-694" value="" style="shape=tableRow;horizontal=0;startSize=0;swimlaneHead=0;swimlaneBody=0;fillColor=none;collapsible=0;dropTarget=0;points=[[0,0.5],[1,0.5]];portConstraint=eastwest;top=0;left=0;right=0;bottom=0;" vertex="1" parent="cN46fnsZ54RdRkZos_jZ-663">
          <mxGeometry y="330" width="264.75" height="30" as="geometry" />
        </mxCell>
        <mxCell id="cN46fnsZ54RdRkZos_jZ-695" value="int" style="shape=partialRectangle;connectable=0;fillColor=none;top=0;left=0;bottom=0;right=0;editable=1;overflow=hidden;whiteSpace=wrap;html=1;" vertex="1" parent="cN46fnsZ54RdRkZos_jZ-694">
          <mxGeometry width="63.11999999999989" height="30" as="geometry">
            <mxRectangle width="63.11999999999989" height="30" as="alternateBounds" />
          </mxGeometry>
        </mxCell>
        <mxCell id="cN46fnsZ54RdRkZos_jZ-696" value="CD_REGIAO_INTERMEDIARIA" style="shape=partialRectangle;connectable=0;fillColor=none;top=0;left=0;bottom=0;right=0;align=left;spacingLeft=6;overflow=hidden;whiteSpace=wrap;html=1;" vertex="1" parent="cN46fnsZ54RdRkZos_jZ-694">
          <mxGeometry x="63.11999999999989" width="201.6300000000001" height="30" as="geometry">
            <mxRectangle width="201.6300000000001" height="30" as="alternateBounds" />
          </mxGeometry>
        </mxCell>
        <mxCell id="cN46fnsZ54RdRkZos_jZ-697" value="" style="shape=tableRow;horizontal=0;startSize=0;swimlaneHead=0;swimlaneBody=0;fillColor=none;collapsible=0;dropTarget=0;points=[[0,0.5],[1,0.5]];portConstraint=eastwest;top=0;left=0;right=0;bottom=0;" vertex="1" parent="cN46fnsZ54RdRkZos_jZ-663">
          <mxGeometry y="360" width="264.75" height="30" as="geometry" />
        </mxCell>
        <mxCell id="cN46fnsZ54RdRkZos_jZ-698" value="text" style="shape=partialRectangle;connectable=0;fillColor=none;top=0;left=0;bottom=0;right=0;editable=1;overflow=hidden;whiteSpace=wrap;html=1;" vertex="1" parent="cN46fnsZ54RdRkZos_jZ-697">
          <mxGeometry width="63.11999999999989" height="30" as="geometry">
            <mxRectangle width="63.11999999999989" height="30" as="alternateBounds" />
          </mxGeometry>
        </mxCell>
        <mxCell id="cN46fnsZ54RdRkZos_jZ-699" value="NO_REGIAO_INTERMEDIARIA" style="shape=partialRectangle;connectable=0;fillColor=none;top=0;left=0;bottom=0;right=0;align=left;spacingLeft=6;overflow=hidden;whiteSpace=wrap;html=1;" vertex="1" parent="cN46fnsZ54RdRkZos_jZ-697">
          <mxGeometry x="63.11999999999989" width="201.6300000000001" height="30" as="geometry">
            <mxRectangle width="201.6300000000001" height="30" as="alternateBounds" />
          </mxGeometry>
        </mxCell>
        <mxCell id="cN46fnsZ54RdRkZos_jZ-700" value="" style="shape=tableRow;horizontal=0;startSize=0;swimlaneHead=0;swimlaneBody=0;fillColor=none;collapsible=0;dropTarget=0;points=[[0,0.5],[1,0.5]];portConstraint=eastwest;top=0;left=0;right=0;bottom=0;" vertex="1" parent="cN46fnsZ54RdRkZos_jZ-663">
          <mxGeometry y="390" width="264.75" height="30" as="geometry" />
        </mxCell>
        <mxCell id="cN46fnsZ54RdRkZos_jZ-701" value="int" style="shape=partialRectangle;connectable=0;fillColor=none;top=0;left=0;bottom=0;right=0;editable=1;overflow=hidden;whiteSpace=wrap;html=1;" vertex="1" parent="cN46fnsZ54RdRkZos_jZ-700">
          <mxGeometry width="63.11999999999989" height="30" as="geometry">
            <mxRectangle width="63.11999999999989" height="30" as="alternateBounds" />
          </mxGeometry>
        </mxCell>
        <mxCell id="cN46fnsZ54RdRkZos_jZ-702" value="CD_UF" style="shape=partialRectangle;connectable=0;fillColor=none;top=0;left=0;bottom=0;right=0;align=left;spacingLeft=6;overflow=hidden;whiteSpace=wrap;html=1;" vertex="1" parent="cN46fnsZ54RdRkZos_jZ-700">
          <mxGeometry x="63.11999999999989" width="201.6300000000001" height="30" as="geometry">
            <mxRectangle width="201.6300000000001" height="30" as="alternateBounds" />
          </mxGeometry>
        </mxCell>
        <mxCell id="cN46fnsZ54RdRkZos_jZ-703" value="" style="shape=tableRow;horizontal=0;startSize=0;swimlaneHead=0;swimlaneBody=0;fillColor=none;collapsible=0;dropTarget=0;points=[[0,0.5],[1,0.5]];portConstraint=eastwest;top=0;left=0;right=0;bottom=0;" vertex="1" parent="cN46fnsZ54RdRkZos_jZ-663">
          <mxGeometry y="420" width="264.75" height="30" as="geometry" />
        </mxCell>
        <mxCell id="cN46fnsZ54RdRkZos_jZ-704" value="text" style="shape=partialRectangle;connectable=0;fillColor=none;top=0;left=0;bottom=0;right=0;editable=1;overflow=hidden;whiteSpace=wrap;html=1;" vertex="1" parent="cN46fnsZ54RdRkZos_jZ-703">
          <mxGeometry width="63.11999999999989" height="30" as="geometry">
            <mxRectangle width="63.11999999999989" height="30" as="alternateBounds" />
          </mxGeometry>
        </mxCell>
        <mxCell id="cN46fnsZ54RdRkZos_jZ-705" value="DS_SIGLA_UF" style="shape=partialRectangle;connectable=0;fillColor=none;top=0;left=0;bottom=0;right=0;align=left;spacingLeft=6;overflow=hidden;whiteSpace=wrap;html=1;" vertex="1" parent="cN46fnsZ54RdRkZos_jZ-703">
          <mxGeometry x="63.11999999999989" width="201.6300000000001" height="30" as="geometry">
            <mxRectangle width="201.6300000000001" height="30" as="alternateBounds" />
          </mxGeometry>
        </mxCell>
        <mxCell id="cN46fnsZ54RdRkZos_jZ-706" value="" style="shape=tableRow;horizontal=0;startSize=0;swimlaneHead=0;swimlaneBody=0;fillColor=none;collapsible=0;dropTarget=0;points=[[0,0.5],[1,0.5]];portConstraint=eastwest;top=0;left=0;right=0;bottom=0;" vertex="1" parent="cN46fnsZ54RdRkZos_jZ-663">
          <mxGeometry y="450" width="264.75" height="30" as="geometry" />
        </mxCell>
        <mxCell id="cN46fnsZ54RdRkZos_jZ-707" value="text" style="shape=partialRectangle;connectable=0;fillColor=none;top=0;left=0;bottom=0;right=0;editable=1;overflow=hidden;whiteSpace=wrap;html=1;" vertex="1" parent="cN46fnsZ54RdRkZos_jZ-706">
          <mxGeometry width="63.11999999999989" height="30" as="geometry">
            <mxRectangle width="63.11999999999989" height="30" as="alternateBounds" />
          </mxGeometry>
        </mxCell>
        <mxCell id="cN46fnsZ54RdRkZos_jZ-708" value="NO_UF" style="shape=partialRectangle;connectable=0;fillColor=none;top=0;left=0;bottom=0;right=0;align=left;spacingLeft=6;overflow=hidden;whiteSpace=wrap;html=1;" vertex="1" parent="cN46fnsZ54RdRkZos_jZ-706">
          <mxGeometry x="63.11999999999989" width="201.6300000000001" height="30" as="geometry">
            <mxRectangle width="201.6300000000001" height="30" as="alternateBounds" />
          </mxGeometry>
        </mxCell>
        <mxCell id="cN46fnsZ54RdRkZos_jZ-709" value="" style="shape=tableRow;horizontal=0;startSize=0;swimlaneHead=0;swimlaneBody=0;fillColor=none;collapsible=0;dropTarget=0;points=[[0,0.5],[1,0.5]];portConstraint=eastwest;top=0;left=0;right=0;bottom=0;" vertex="1" parent="cN46fnsZ54RdRkZos_jZ-663">
          <mxGeometry y="480" width="264.75" height="30" as="geometry" />
        </mxCell>
        <mxCell id="cN46fnsZ54RdRkZos_jZ-710" value="int" style="shape=partialRectangle;connectable=0;fillColor=none;top=0;left=0;bottom=0;right=0;editable=1;overflow=hidden;whiteSpace=wrap;html=1;" vertex="1" parent="cN46fnsZ54RdRkZos_jZ-709">
          <mxGeometry width="63.11999999999989" height="30" as="geometry">
            <mxRectangle width="63.11999999999989" height="30" as="alternateBounds" />
          </mxGeometry>
        </mxCell>
        <mxCell id="cN46fnsZ54RdRkZos_jZ-711" value="CD_REGIAO" style="shape=partialRectangle;connectable=0;fillColor=none;top=0;left=0;bottom=0;right=0;align=left;spacingLeft=6;overflow=hidden;whiteSpace=wrap;html=1;" vertex="1" parent="cN46fnsZ54RdRkZos_jZ-709">
          <mxGeometry x="63.11999999999989" width="201.6300000000001" height="30" as="geometry">
            <mxRectangle width="201.6300000000001" height="30" as="alternateBounds" />
          </mxGeometry>
        </mxCell>
        <mxCell id="cN46fnsZ54RdRkZos_jZ-712" value="" style="shape=tableRow;horizontal=0;startSize=0;swimlaneHead=0;swimlaneBody=0;fillColor=none;collapsible=0;dropTarget=0;points=[[0,0.5],[1,0.5]];portConstraint=eastwest;top=0;left=0;right=0;bottom=0;" vertex="1" parent="cN46fnsZ54RdRkZos_jZ-663">
          <mxGeometry y="510" width="264.75" height="30" as="geometry" />
        </mxCell>
        <mxCell id="cN46fnsZ54RdRkZos_jZ-713" value="text" style="shape=partialRectangle;connectable=0;fillColor=none;top=0;left=0;bottom=0;right=0;editable=1;overflow=hidden;whiteSpace=wrap;html=1;" vertex="1" parent="cN46fnsZ54RdRkZos_jZ-712">
          <mxGeometry width="63.11999999999989" height="30" as="geometry">
            <mxRectangle width="63.11999999999989" height="30" as="alternateBounds" />
          </mxGeometry>
        </mxCell>
        <mxCell id="cN46fnsZ54RdRkZos_jZ-714" value="DS_SIGLA_REGIAO" style="shape=partialRectangle;connectable=0;fillColor=none;top=0;left=0;bottom=0;right=0;align=left;spacingLeft=6;overflow=hidden;whiteSpace=wrap;html=1;" vertex="1" parent="cN46fnsZ54RdRkZos_jZ-712">
          <mxGeometry x="63.11999999999989" width="201.6300000000001" height="30" as="geometry">
            <mxRectangle width="201.6300000000001" height="30" as="alternateBounds" />
          </mxGeometry>
        </mxCell>
        <mxCell id="cN46fnsZ54RdRkZos_jZ-715" value="" style="shape=tableRow;horizontal=0;startSize=0;swimlaneHead=0;swimlaneBody=0;fillColor=none;collapsible=0;dropTarget=0;points=[[0,0.5],[1,0.5]];portConstraint=eastwest;top=0;left=0;right=0;bottom=0;" vertex="1" parent="cN46fnsZ54RdRkZos_jZ-663">
          <mxGeometry y="540" width="264.75" height="30" as="geometry" />
        </mxCell>
        <mxCell id="cN46fnsZ54RdRkZos_jZ-716" value="text" style="shape=partialRectangle;connectable=0;fillColor=none;top=0;left=0;bottom=0;right=0;editable=1;overflow=hidden;whiteSpace=wrap;html=1;" vertex="1" parent="cN46fnsZ54RdRkZos_jZ-715">
          <mxGeometry width="63.11999999999989" height="30" as="geometry">
            <mxRectangle width="63.11999999999989" height="30" as="alternateBounds" />
          </mxGeometry>
        </mxCell>
        <mxCell id="cN46fnsZ54RdRkZos_jZ-717" value="NO_REGIAO" style="shape=partialRectangle;connectable=0;fillColor=none;top=0;left=0;bottom=0;right=0;align=left;spacingLeft=6;overflow=hidden;whiteSpace=wrap;html=1;" vertex="1" parent="cN46fnsZ54RdRkZos_jZ-715">
          <mxGeometry x="63.11999999999989" width="201.6300000000001" height="30" as="geometry">
            <mxRectangle width="201.6300000000001" height="30" as="alternateBounds" />
          </mxGeometry>
        </mxCell>
        <mxCell id="cN46fnsZ54RdRkZos_jZ-718" value="" style="shape=tableRow;horizontal=0;startSize=0;swimlaneHead=0;swimlaneBody=0;fillColor=none;collapsible=0;dropTarget=0;points=[[0,0.5],[1,0.5]];portConstraint=eastwest;top=0;left=0;right=0;bottom=0;" vertex="1" parent="cN46fnsZ54RdRkZos_jZ-663">
          <mxGeometry y="570" width="264.75" height="30" as="geometry" />
        </mxCell>
        <mxCell id="cN46fnsZ54RdRkZos_jZ-719" value="timestamp" style="shape=partialRectangle;connectable=0;fillColor=none;top=0;left=0;bottom=0;right=0;editable=1;overflow=hidden;whiteSpace=wrap;html=1;" vertex="1" parent="cN46fnsZ54RdRkZos_jZ-718">
          <mxGeometry width="63.11999999999989" height="30" as="geometry">
            <mxRectangle width="63.11999999999989" height="30" as="alternateBounds" />
          </mxGeometry>
        </mxCell>
        <mxCell id="cN46fnsZ54RdRkZos_jZ-720" value="DT_CARGA" style="shape=partialRectangle;connectable=0;fillColor=none;top=0;left=0;bottom=0;right=0;align=left;spacingLeft=6;overflow=hidden;whiteSpace=wrap;html=1;" vertex="1" parent="cN46fnsZ54RdRkZos_jZ-718">
          <mxGeometry x="63.11999999999989" width="201.6300000000001" height="30" as="geometry">
            <mxRectangle width="201.6300000000001" height="30" as="alternateBounds" />
          </mxGeometry>
        </mxCell>
        <mxCell id="cN46fnsZ54RdRkZos_jZ-721" value="F_OBITO&lt;br&gt;" style="shape=table;startSize=30;container=1;collapsible=1;childLayout=tableLayout;fixedRows=1;rowLines=0;fontStyle=1;align=center;resizeLast=1;html=1;" vertex="1" parent="1">
          <mxGeometry x="-895" y="576" width="330" height="631" as="geometry" />
        </mxCell>
        <mxCell id="cN46fnsZ54RdRkZos_jZ-722" value="" style="shape=tableRow;horizontal=0;startSize=0;swimlaneHead=0;swimlaneBody=0;fillColor=none;collapsible=0;dropTarget=0;points=[[0,0.5],[1,0.5]];portConstraint=eastwest;top=0;left=0;right=0;bottom=1;" vertex="1" parent="cN46fnsZ54RdRkZos_jZ-721">
          <mxGeometry y="30" width="330" height="30" as="geometry" />
        </mxCell>
        <mxCell id="cN46fnsZ54RdRkZos_jZ-723" value="int" style="shape=partialRectangle;connectable=0;fillColor=none;top=0;left=0;bottom=0;right=0;fontStyle=1;overflow=hidden;whiteSpace=wrap;html=1;" vertex="1" parent="cN46fnsZ54RdRkZos_jZ-722">
          <mxGeometry width="58.75" height="30" as="geometry">
            <mxRectangle width="58.75" height="30" as="alternateBounds" />
          </mxGeometry>
        </mxCell>
        <mxCell id="cN46fnsZ54RdRkZos_jZ-724" value="SK_MUNICIPIO_NATURALIDADE_FALECIDO" style="shape=partialRectangle;connectable=0;fillColor=none;top=0;left=0;bottom=0;right=0;align=left;spacingLeft=6;fontStyle=5;overflow=hidden;whiteSpace=wrap;html=1;" vertex="1" parent="cN46fnsZ54RdRkZos_jZ-722">
          <mxGeometry x="58.75" width="271.25" height="30" as="geometry">
            <mxRectangle width="271.25" height="30" as="alternateBounds" />
          </mxGeometry>
        </mxCell>
        <mxCell id="cN46fnsZ54RdRkZos_jZ-725" value="" style="shape=tableRow;horizontal=0;startSize=0;swimlaneHead=0;swimlaneBody=0;fillColor=none;collapsible=0;dropTarget=0;points=[[0,0.5],[1,0.5]];portConstraint=eastwest;top=0;left=0;right=0;bottom=1;" vertex="1" parent="cN46fnsZ54RdRkZos_jZ-721">
          <mxGeometry y="60" width="330" height="30" as="geometry" />
        </mxCell>
        <mxCell id="cN46fnsZ54RdRkZos_jZ-726" value="int" style="shape=partialRectangle;connectable=0;fillColor=none;top=0;left=0;bottom=0;right=0;fontStyle=1;overflow=hidden;whiteSpace=wrap;html=1;" vertex="1" parent="cN46fnsZ54RdRkZos_jZ-725">
          <mxGeometry width="58.75" height="30" as="geometry">
            <mxRectangle width="58.75" height="30" as="alternateBounds" />
          </mxGeometry>
        </mxCell>
        <mxCell id="cN46fnsZ54RdRkZos_jZ-727" value="SK_MUNICIPIO_OCORRENCIA_OBITO" style="shape=partialRectangle;connectable=0;fillColor=none;top=0;left=0;bottom=0;right=0;align=left;spacingLeft=6;fontStyle=5;overflow=hidden;whiteSpace=wrap;html=1;" vertex="1" parent="cN46fnsZ54RdRkZos_jZ-725">
          <mxGeometry x="58.75" width="271.25" height="30" as="geometry">
            <mxRectangle width="271.25" height="30" as="alternateBounds" />
          </mxGeometry>
        </mxCell>
        <mxCell id="cN46fnsZ54RdRkZos_jZ-728" value="" style="shape=tableRow;horizontal=0;startSize=0;swimlaneHead=0;swimlaneBody=0;fillColor=none;collapsible=0;dropTarget=0;points=[[0,0.5],[1,0.5]];portConstraint=eastwest;top=0;left=0;right=0;bottom=1;" vertex="1" parent="cN46fnsZ54RdRkZos_jZ-721">
          <mxGeometry y="90" width="330" height="30" as="geometry" />
        </mxCell>
        <mxCell id="cN46fnsZ54RdRkZos_jZ-729" value="int" style="shape=partialRectangle;connectable=0;fillColor=none;top=0;left=0;bottom=0;right=0;fontStyle=1;overflow=hidden;whiteSpace=wrap;html=1;" vertex="1" parent="cN46fnsZ54RdRkZos_jZ-728">
          <mxGeometry width="58.75" height="30" as="geometry">
            <mxRectangle width="58.75" height="30" as="alternateBounds" />
          </mxGeometry>
        </mxCell>
        <mxCell id="cN46fnsZ54RdRkZos_jZ-730" value="SK_MUNICIPIO_RESIDENCIA_FALECIDO" style="shape=partialRectangle;connectable=0;fillColor=none;top=0;left=0;bottom=0;right=0;align=left;spacingLeft=6;fontStyle=5;overflow=hidden;whiteSpace=wrap;html=1;" vertex="1" parent="cN46fnsZ54RdRkZos_jZ-728">
          <mxGeometry x="58.75" width="271.25" height="30" as="geometry">
            <mxRectangle width="271.25" height="30" as="alternateBounds" />
          </mxGeometry>
        </mxCell>
        <mxCell id="cN46fnsZ54RdRkZos_jZ-731" value="" style="shape=tableRow;horizontal=0;startSize=0;swimlaneHead=0;swimlaneBody=0;fillColor=none;collapsible=0;dropTarget=0;points=[[0,0.5],[1,0.5]];portConstraint=eastwest;top=0;left=0;right=0;bottom=1;" vertex="1" parent="cN46fnsZ54RdRkZos_jZ-721">
          <mxGeometry y="120" width="330" height="30" as="geometry" />
        </mxCell>
        <mxCell id="cN46fnsZ54RdRkZos_jZ-732" value="int" style="shape=partialRectangle;connectable=0;fillColor=none;top=0;left=0;bottom=0;right=0;fontStyle=1;overflow=hidden;whiteSpace=wrap;html=1;" vertex="1" parent="cN46fnsZ54RdRkZos_jZ-731">
          <mxGeometry width="58.75" height="30" as="geometry">
            <mxRectangle width="58.75" height="30" as="alternateBounds" />
          </mxGeometry>
        </mxCell>
        <mxCell id="cN46fnsZ54RdRkZos_jZ-733" value="SK_OCUPACAO_FALECIDO" style="shape=partialRectangle;connectable=0;fillColor=none;top=0;left=0;bottom=0;right=0;align=left;spacingLeft=6;fontStyle=5;overflow=hidden;whiteSpace=wrap;html=1;" vertex="1" parent="cN46fnsZ54RdRkZos_jZ-731">
          <mxGeometry x="58.75" width="271.25" height="30" as="geometry">
            <mxRectangle width="271.25" height="30" as="alternateBounds" />
          </mxGeometry>
        </mxCell>
        <mxCell id="cN46fnsZ54RdRkZos_jZ-734" value="" style="shape=tableRow;horizontal=0;startSize=0;swimlaneHead=0;swimlaneBody=0;fillColor=none;collapsible=0;dropTarget=0;points=[[0,0.5],[1,0.5]];portConstraint=eastwest;top=0;left=0;right=0;bottom=1;" vertex="1" parent="cN46fnsZ54RdRkZos_jZ-721">
          <mxGeometry y="150" width="330" height="30" as="geometry" />
        </mxCell>
        <mxCell id="cN46fnsZ54RdRkZos_jZ-735" value="int" style="shape=partialRectangle;connectable=0;fillColor=none;top=0;left=0;bottom=0;right=0;fontStyle=1;overflow=hidden;whiteSpace=wrap;html=1;" vertex="1" parent="cN46fnsZ54RdRkZos_jZ-734">
          <mxGeometry width="58.75" height="30" as="geometry">
            <mxRectangle width="58.75" height="30" as="alternateBounds" />
          </mxGeometry>
        </mxCell>
        <mxCell id="cN46fnsZ54RdRkZos_jZ-736" value="SK_NATURALIDADE" style="shape=partialRectangle;connectable=0;fillColor=none;top=0;left=0;bottom=0;right=0;align=left;spacingLeft=6;fontStyle=5;overflow=hidden;whiteSpace=wrap;html=1;" vertex="1" parent="cN46fnsZ54RdRkZos_jZ-734">
          <mxGeometry x="58.75" width="271.25" height="30" as="geometry">
            <mxRectangle width="271.25" height="30" as="alternateBounds" />
          </mxGeometry>
        </mxCell>
        <mxCell id="cN46fnsZ54RdRkZos_jZ-737" value="" style="shape=tableRow;horizontal=0;startSize=0;swimlaneHead=0;swimlaneBody=0;fillColor=none;collapsible=0;dropTarget=0;points=[[0,0.5],[1,0.5]];portConstraint=eastwest;top=0;left=0;right=0;bottom=1;" vertex="1" parent="cN46fnsZ54RdRkZos_jZ-721">
          <mxGeometry y="180" width="330" height="30" as="geometry" />
        </mxCell>
        <mxCell id="cN46fnsZ54RdRkZos_jZ-738" value="int" style="shape=partialRectangle;connectable=0;fillColor=none;top=0;left=0;bottom=0;right=0;fontStyle=1;overflow=hidden;whiteSpace=wrap;html=1;" vertex="1" parent="cN46fnsZ54RdRkZos_jZ-737">
          <mxGeometry width="58.75" height="30" as="geometry">
            <mxRectangle width="58.75" height="30" as="alternateBounds" />
          </mxGeometry>
        </mxCell>
        <mxCell id="cN46fnsZ54RdRkZos_jZ-739" value="SK_RACA_COR" style="shape=partialRectangle;connectable=0;fillColor=none;top=0;left=0;bottom=0;right=0;align=left;spacingLeft=6;fontStyle=5;overflow=hidden;whiteSpace=wrap;html=1;" vertex="1" parent="cN46fnsZ54RdRkZos_jZ-737">
          <mxGeometry x="58.75" width="271.25" height="30" as="geometry">
            <mxRectangle width="271.25" height="30" as="alternateBounds" />
          </mxGeometry>
        </mxCell>
        <mxCell id="cN46fnsZ54RdRkZos_jZ-740" value="" style="shape=tableRow;horizontal=0;startSize=0;swimlaneHead=0;swimlaneBody=0;fillColor=none;collapsible=0;dropTarget=0;points=[[0,0.5],[1,0.5]];portConstraint=eastwest;top=0;left=0;right=0;bottom=1;" vertex="1" parent="cN46fnsZ54RdRkZos_jZ-721">
          <mxGeometry y="210" width="330" height="30" as="geometry" />
        </mxCell>
        <mxCell id="cN46fnsZ54RdRkZos_jZ-741" value="int" style="shape=partialRectangle;connectable=0;fillColor=none;top=0;left=0;bottom=0;right=0;fontStyle=1;overflow=hidden;whiteSpace=wrap;html=1;" vertex="1" parent="cN46fnsZ54RdRkZos_jZ-740">
          <mxGeometry width="58.75" height="30" as="geometry">
            <mxRectangle width="58.75" height="30" as="alternateBounds" />
          </mxGeometry>
        </mxCell>
        <mxCell id="cN46fnsZ54RdRkZos_jZ-742" value="SK_SEXO" style="shape=partialRectangle;connectable=0;fillColor=none;top=0;left=0;bottom=0;right=0;align=left;spacingLeft=6;fontStyle=5;overflow=hidden;whiteSpace=wrap;html=1;" vertex="1" parent="cN46fnsZ54RdRkZos_jZ-740">
          <mxGeometry x="58.75" width="271.25" height="30" as="geometry">
            <mxRectangle width="271.25" height="30" as="alternateBounds" />
          </mxGeometry>
        </mxCell>
        <mxCell id="cN46fnsZ54RdRkZos_jZ-743" value="" style="shape=tableRow;horizontal=0;startSize=0;swimlaneHead=0;swimlaneBody=0;fillColor=none;collapsible=0;dropTarget=0;points=[[0,0.5],[1,0.5]];portConstraint=eastwest;top=0;left=0;right=0;bottom=1;" vertex="1" parent="cN46fnsZ54RdRkZos_jZ-721">
          <mxGeometry y="240" width="330" height="30" as="geometry" />
        </mxCell>
        <mxCell id="cN46fnsZ54RdRkZos_jZ-744" value="int" style="shape=partialRectangle;connectable=0;fillColor=none;top=0;left=0;bottom=0;right=0;fontStyle=1;overflow=hidden;whiteSpace=wrap;html=1;" vertex="1" parent="cN46fnsZ54RdRkZos_jZ-743">
          <mxGeometry width="58.75" height="30" as="geometry">
            <mxRectangle width="58.75" height="30" as="alternateBounds" />
          </mxGeometry>
        </mxCell>
        <mxCell id="cN46fnsZ54RdRkZos_jZ-745" value="SK_CID_CAUSA_OBITO" style="shape=partialRectangle;connectable=0;fillColor=none;top=0;left=0;bottom=0;right=0;align=left;spacingLeft=6;fontStyle=5;overflow=hidden;whiteSpace=wrap;html=1;" vertex="1" parent="cN46fnsZ54RdRkZos_jZ-743">
          <mxGeometry x="58.75" width="271.25" height="30" as="geometry">
            <mxRectangle width="271.25" height="30" as="alternateBounds" />
          </mxGeometry>
        </mxCell>
        <mxCell id="cN46fnsZ54RdRkZos_jZ-746" value="" style="shape=tableRow;horizontal=0;startSize=0;swimlaneHead=0;swimlaneBody=0;fillColor=none;collapsible=0;dropTarget=0;points=[[0,0.5],[1,0.5]];portConstraint=eastwest;top=0;left=0;right=0;bottom=0;" vertex="1" parent="cN46fnsZ54RdRkZos_jZ-721">
          <mxGeometry y="270" width="330" height="30" as="geometry" />
        </mxCell>
        <mxCell id="cN46fnsZ54RdRkZos_jZ-747" value="int" style="shape=partialRectangle;connectable=0;fillColor=none;top=0;left=0;bottom=0;right=0;editable=1;overflow=hidden;whiteSpace=wrap;html=1;" vertex="1" parent="cN46fnsZ54RdRkZos_jZ-746">
          <mxGeometry width="58.75" height="30" as="geometry">
            <mxRectangle width="58.75" height="30" as="alternateBounds" />
          </mxGeometry>
        </mxCell>
        <mxCell id="cN46fnsZ54RdRkZos_jZ-748" value="CD_REGISTRO" style="shape=partialRectangle;connectable=0;fillColor=none;top=0;left=0;bottom=0;right=0;align=left;spacingLeft=6;overflow=hidden;whiteSpace=wrap;html=1;" vertex="1" parent="cN46fnsZ54RdRkZos_jZ-746">
          <mxGeometry x="58.75" width="271.25" height="30" as="geometry">
            <mxRectangle width="271.25" height="30" as="alternateBounds" />
          </mxGeometry>
        </mxCell>
        <mxCell id="cN46fnsZ54RdRkZos_jZ-749" value="" style="shape=tableRow;horizontal=0;startSize=0;swimlaneHead=0;swimlaneBody=0;fillColor=none;collapsible=0;dropTarget=0;points=[[0,0.5],[1,0.5]];portConstraint=eastwest;top=0;left=0;right=0;bottom=0;" vertex="1" parent="cN46fnsZ54RdRkZos_jZ-721">
          <mxGeometry y="300" width="330" height="30" as="geometry" />
        </mxCell>
        <mxCell id="cN46fnsZ54RdRkZos_jZ-750" value="text" style="shape=partialRectangle;connectable=0;fillColor=none;top=0;left=0;bottom=0;right=0;editable=1;overflow=hidden;whiteSpace=wrap;html=1;" vertex="1" parent="cN46fnsZ54RdRkZos_jZ-749">
          <mxGeometry width="58.75" height="30" as="geometry">
            <mxRectangle width="58.75" height="30" as="alternateBounds" />
          </mxGeometry>
        </mxCell>
        <mxCell id="cN46fnsZ54RdRkZos_jZ-751" value="DS_ASSISTENCIA_MEDICA" style="shape=partialRectangle;connectable=0;fillColor=none;top=0;left=0;bottom=0;right=0;align=left;spacingLeft=6;overflow=hidden;whiteSpace=wrap;html=1;" vertex="1" parent="cN46fnsZ54RdRkZos_jZ-749">
          <mxGeometry x="58.75" width="271.25" height="30" as="geometry">
            <mxRectangle width="271.25" height="30" as="alternateBounds" />
          </mxGeometry>
        </mxCell>
        <mxCell id="cN46fnsZ54RdRkZos_jZ-752" value="" style="shape=tableRow;horizontal=0;startSize=0;swimlaneHead=0;swimlaneBody=0;fillColor=none;collapsible=0;dropTarget=0;points=[[0,0.5],[1,0.5]];portConstraint=eastwest;top=0;left=0;right=0;bottom=0;" vertex="1" parent="cN46fnsZ54RdRkZos_jZ-721">
          <mxGeometry y="330" width="330" height="30" as="geometry" />
        </mxCell>
        <mxCell id="cN46fnsZ54RdRkZos_jZ-753" value="text" style="shape=partialRectangle;connectable=0;fillColor=none;top=0;left=0;bottom=0;right=0;editable=1;overflow=hidden;whiteSpace=wrap;html=1;" vertex="1" parent="cN46fnsZ54RdRkZos_jZ-752">
          <mxGeometry width="58.75" height="30" as="geometry">
            <mxRectangle width="58.75" height="30" as="alternateBounds" />
          </mxGeometry>
        </mxCell>
        <mxCell id="cN46fnsZ54RdRkZos_jZ-754" value="DS_ATESTANTE" style="shape=partialRectangle;connectable=0;fillColor=none;top=0;left=0;bottom=0;right=0;align=left;spacingLeft=6;overflow=hidden;whiteSpace=wrap;html=1;" vertex="1" parent="cN46fnsZ54RdRkZos_jZ-752">
          <mxGeometry x="58.75" width="271.25" height="30" as="geometry">
            <mxRectangle width="271.25" height="30" as="alternateBounds" />
          </mxGeometry>
        </mxCell>
        <mxCell id="cN46fnsZ54RdRkZos_jZ-755" value="" style="shape=tableRow;horizontal=0;startSize=0;swimlaneHead=0;swimlaneBody=0;fillColor=none;collapsible=0;dropTarget=0;points=[[0,0.5],[1,0.5]];portConstraint=eastwest;top=0;left=0;right=0;bottom=0;" vertex="1" parent="cN46fnsZ54RdRkZos_jZ-721">
          <mxGeometry y="360" width="330" height="30" as="geometry" />
        </mxCell>
        <mxCell id="cN46fnsZ54RdRkZos_jZ-756" value="text" style="shape=partialRectangle;connectable=0;fillColor=none;top=0;left=0;bottom=0;right=0;editable=1;overflow=hidden;whiteSpace=wrap;html=1;" vertex="1" parent="cN46fnsZ54RdRkZos_jZ-755">
          <mxGeometry width="58.75" height="30" as="geometry">
            <mxRectangle width="58.75" height="30" as="alternateBounds" />
          </mxGeometry>
        </mxCell>
        <mxCell id="cN46fnsZ54RdRkZos_jZ-757" value="DS_CIRCUNSTANCIA_OBITO" style="shape=partialRectangle;connectable=0;fillColor=none;top=0;left=0;bottom=0;right=0;align=left;spacingLeft=6;overflow=hidden;whiteSpace=wrap;html=1;" vertex="1" parent="cN46fnsZ54RdRkZos_jZ-755">
          <mxGeometry x="58.75" width="271.25" height="30" as="geometry">
            <mxRectangle width="271.25" height="30" as="alternateBounds" />
          </mxGeometry>
        </mxCell>
        <mxCell id="cN46fnsZ54RdRkZos_jZ-758" value="" style="shape=tableRow;horizontal=0;startSize=0;swimlaneHead=0;swimlaneBody=0;fillColor=none;collapsible=0;dropTarget=0;points=[[0,0.5],[1,0.5]];portConstraint=eastwest;top=0;left=0;right=0;bottom=0;" vertex="1" parent="cN46fnsZ54RdRkZos_jZ-721">
          <mxGeometry y="390" width="330" height="30" as="geometry" />
        </mxCell>
        <mxCell id="cN46fnsZ54RdRkZos_jZ-759" value="int" style="shape=partialRectangle;connectable=0;fillColor=none;top=0;left=0;bottom=0;right=0;editable=1;overflow=hidden;whiteSpace=wrap;html=1;" vertex="1" parent="cN46fnsZ54RdRkZos_jZ-758">
          <mxGeometry width="58.75" height="30" as="geometry">
            <mxRectangle width="58.75" height="30" as="alternateBounds" />
          </mxGeometry>
        </mxCell>
        <mxCell id="cN46fnsZ54RdRkZos_jZ-760" value="NU_CRM_MEDICO_ATESTANTE" style="shape=partialRectangle;connectable=0;fillColor=none;top=0;left=0;bottom=0;right=0;align=left;spacingLeft=6;overflow=hidden;whiteSpace=wrap;html=1;" vertex="1" parent="cN46fnsZ54RdRkZos_jZ-758">
          <mxGeometry x="58.75" width="271.25" height="30" as="geometry">
            <mxRectangle width="271.25" height="30" as="alternateBounds" />
          </mxGeometry>
        </mxCell>
        <mxCell id="cN46fnsZ54RdRkZos_jZ-761" value="" style="shape=tableRow;horizontal=0;startSize=0;swimlaneHead=0;swimlaneBody=0;fillColor=none;collapsible=0;dropTarget=0;points=[[0,0.5],[1,0.5]];portConstraint=eastwest;top=0;left=0;right=0;bottom=0;" vertex="1" parent="cN46fnsZ54RdRkZos_jZ-721">
          <mxGeometry y="420" width="330" height="30" as="geometry" />
        </mxCell>
        <mxCell id="cN46fnsZ54RdRkZos_jZ-762" value="date" style="shape=partialRectangle;connectable=0;fillColor=none;top=0;left=0;bottom=0;right=0;editable=1;overflow=hidden;whiteSpace=wrap;html=1;" vertex="1" parent="cN46fnsZ54RdRkZos_jZ-761">
          <mxGeometry width="58.75" height="30" as="geometry">
            <mxRectangle width="58.75" height="30" as="alternateBounds" />
          </mxGeometry>
        </mxCell>
        <mxCell id="cN46fnsZ54RdRkZos_jZ-763" value="DT_CADASTRO" style="shape=partialRectangle;connectable=0;fillColor=none;top=0;left=0;bottom=0;right=0;align=left;spacingLeft=6;overflow=hidden;whiteSpace=wrap;html=1;" vertex="1" parent="cN46fnsZ54RdRkZos_jZ-761">
          <mxGeometry x="58.75" width="271.25" height="30" as="geometry">
            <mxRectangle width="271.25" height="30" as="alternateBounds" />
          </mxGeometry>
        </mxCell>
        <mxCell id="cN46fnsZ54RdRkZos_jZ-764" value="" style="shape=tableRow;horizontal=0;startSize=0;swimlaneHead=0;swimlaneBody=0;fillColor=none;collapsible=0;dropTarget=0;points=[[0,0.5],[1,0.5]];portConstraint=eastwest;top=0;left=0;right=0;bottom=0;" vertex="1" parent="cN46fnsZ54RdRkZos_jZ-721">
          <mxGeometry y="450" width="330" height="30" as="geometry" />
        </mxCell>
        <mxCell id="cN46fnsZ54RdRkZos_jZ-765" value="date" style="shape=partialRectangle;connectable=0;fillColor=none;top=0;left=0;bottom=0;right=0;editable=1;overflow=hidden;whiteSpace=wrap;html=1;" vertex="1" parent="cN46fnsZ54RdRkZos_jZ-764">
          <mxGeometry width="58.75" height="30" as="geometry">
            <mxRectangle width="58.75" height="30" as="alternateBounds" />
          </mxGeometry>
        </mxCell>
        <mxCell id="cN46fnsZ54RdRkZos_jZ-766" value="DT_ATESTADO" style="shape=partialRectangle;connectable=0;fillColor=none;top=0;left=0;bottom=0;right=0;align=left;spacingLeft=6;overflow=hidden;whiteSpace=wrap;html=1;" vertex="1" parent="cN46fnsZ54RdRkZos_jZ-764">
          <mxGeometry x="58.75" width="271.25" height="30" as="geometry">
            <mxRectangle width="271.25" height="30" as="alternateBounds" />
          </mxGeometry>
        </mxCell>
        <mxCell id="cN46fnsZ54RdRkZos_jZ-767" value="" style="shape=tableRow;horizontal=0;startSize=0;swimlaneHead=0;swimlaneBody=0;fillColor=none;collapsible=0;dropTarget=0;points=[[0,0.5],[1,0.5]];portConstraint=eastwest;top=0;left=0;right=0;bottom=0;" vertex="1" parent="cN46fnsZ54RdRkZos_jZ-721">
          <mxGeometry y="480" width="330" height="30" as="geometry" />
        </mxCell>
        <mxCell id="cN46fnsZ54RdRkZos_jZ-768" value="date" style="shape=partialRectangle;connectable=0;fillColor=none;top=0;left=0;bottom=0;right=0;editable=1;overflow=hidden;whiteSpace=wrap;html=1;" vertex="1" parent="cN46fnsZ54RdRkZos_jZ-767">
          <mxGeometry width="58.75" height="30" as="geometry">
            <mxRectangle width="58.75" height="30" as="alternateBounds" />
          </mxGeometry>
        </mxCell>
        <mxCell id="cN46fnsZ54RdRkZos_jZ-769" value="DT_OBITO" style="shape=partialRectangle;connectable=0;fillColor=none;top=0;left=0;bottom=0;right=0;align=left;spacingLeft=6;overflow=hidden;whiteSpace=wrap;html=1;" vertex="1" parent="cN46fnsZ54RdRkZos_jZ-767">
          <mxGeometry x="58.75" width="271.25" height="30" as="geometry">
            <mxRectangle width="271.25" height="30" as="alternateBounds" />
          </mxGeometry>
        </mxCell>
        <mxCell id="cN46fnsZ54RdRkZos_jZ-770" value="" style="shape=tableRow;horizontal=0;startSize=0;swimlaneHead=0;swimlaneBody=0;fillColor=none;collapsible=0;dropTarget=0;points=[[0,0.5],[1,0.5]];portConstraint=eastwest;top=0;left=0;right=0;bottom=0;" vertex="1" parent="cN46fnsZ54RdRkZos_jZ-721">
          <mxGeometry y="510" width="330" height="30" as="geometry" />
        </mxCell>
        <mxCell id="cN46fnsZ54RdRkZos_jZ-771" value="time" style="shape=partialRectangle;connectable=0;fillColor=none;top=0;left=0;bottom=0;right=0;editable=1;overflow=hidden;whiteSpace=wrap;html=1;" vertex="1" parent="cN46fnsZ54RdRkZos_jZ-770">
          <mxGeometry width="58.75" height="30" as="geometry">
            <mxRectangle width="58.75" height="30" as="alternateBounds" />
          </mxGeometry>
        </mxCell>
        <mxCell id="cN46fnsZ54RdRkZos_jZ-772" value="DT_HORA_OBITO" style="shape=partialRectangle;connectable=0;fillColor=none;top=0;left=0;bottom=0;right=0;align=left;spacingLeft=6;overflow=hidden;whiteSpace=wrap;html=1;" vertex="1" parent="cN46fnsZ54RdRkZos_jZ-770">
          <mxGeometry x="58.75" width="271.25" height="30" as="geometry">
            <mxRectangle width="271.25" height="30" as="alternateBounds" />
          </mxGeometry>
        </mxCell>
        <mxCell id="cN46fnsZ54RdRkZos_jZ-773" value="" style="shape=tableRow;horizontal=0;startSize=0;swimlaneHead=0;swimlaneBody=0;fillColor=none;collapsible=0;dropTarget=0;points=[[0,0.5],[1,0.5]];portConstraint=eastwest;top=0;left=0;right=0;bottom=0;" vertex="1" parent="cN46fnsZ54RdRkZos_jZ-721">
          <mxGeometry y="540" width="330" height="30" as="geometry" />
        </mxCell>
        <mxCell id="cN46fnsZ54RdRkZos_jZ-774" value="date" style="shape=partialRectangle;connectable=0;fillColor=none;top=0;left=0;bottom=0;right=0;editable=1;overflow=hidden;whiteSpace=wrap;html=1;" vertex="1" parent="cN46fnsZ54RdRkZos_jZ-773">
          <mxGeometry width="58.75" height="30" as="geometry">
            <mxRectangle width="58.75" height="30" as="alternateBounds" />
          </mxGeometry>
        </mxCell>
        <mxCell id="cN46fnsZ54RdRkZos_jZ-775" value="DT_NASCIMENTO_FALECIDO" style="shape=partialRectangle;connectable=0;fillColor=none;top=0;left=0;bottom=0;right=0;align=left;spacingLeft=6;overflow=hidden;whiteSpace=wrap;html=1;" vertex="1" parent="cN46fnsZ54RdRkZos_jZ-773">
          <mxGeometry x="58.75" width="271.25" height="30" as="geometry">
            <mxRectangle width="271.25" height="30" as="alternateBounds" />
          </mxGeometry>
        </mxCell>
        <mxCell id="cN46fnsZ54RdRkZos_jZ-776" value="" style="shape=tableRow;horizontal=0;startSize=0;swimlaneHead=0;swimlaneBody=0;fillColor=none;collapsible=0;dropTarget=0;points=[[0,0.5],[1,0.5]];portConstraint=eastwest;top=0;left=0;right=0;bottom=0;" vertex="1" parent="cN46fnsZ54RdRkZos_jZ-721">
          <mxGeometry y="570" width="330" height="30" as="geometry" />
        </mxCell>
        <mxCell id="cN46fnsZ54RdRkZos_jZ-777" value="int" style="shape=partialRectangle;connectable=0;fillColor=none;top=0;left=0;bottom=0;right=0;editable=1;overflow=hidden;whiteSpace=wrap;html=1;" vertex="1" parent="cN46fnsZ54RdRkZos_jZ-776">
          <mxGeometry width="58.75" height="30" as="geometry">
            <mxRectangle width="58.75" height="30" as="alternateBounds" />
          </mxGeometry>
        </mxCell>
        <mxCell id="cN46fnsZ54RdRkZos_jZ-778" value="VL_IDADE_FALECIDO" style="shape=partialRectangle;connectable=0;fillColor=none;top=0;left=0;bottom=0;right=0;align=left;spacingLeft=6;overflow=hidden;whiteSpace=wrap;html=1;" vertex="1" parent="cN46fnsZ54RdRkZos_jZ-776">
          <mxGeometry x="58.75" width="271.25" height="30" as="geometry">
            <mxRectangle width="271.25" height="30" as="alternateBounds" />
          </mxGeometry>
        </mxCell>
        <mxCell id="cN46fnsZ54RdRkZos_jZ-779" value="" style="shape=tableRow;horizontal=0;startSize=0;swimlaneHead=0;swimlaneBody=0;fillColor=none;collapsible=0;dropTarget=0;points=[[0,0.5],[1,0.5]];portConstraint=eastwest;top=0;left=0;right=0;bottom=0;" vertex="1" parent="cN46fnsZ54RdRkZos_jZ-721">
          <mxGeometry y="600" width="330" height="30" as="geometry" />
        </mxCell>
        <mxCell id="cN46fnsZ54RdRkZos_jZ-780" value="timestamp" style="shape=partialRectangle;connectable=0;fillColor=none;top=0;left=0;bottom=0;right=0;editable=1;overflow=hidden;whiteSpace=wrap;html=1;" vertex="1" parent="cN46fnsZ54RdRkZos_jZ-779">
          <mxGeometry width="58.75" height="30" as="geometry">
            <mxRectangle width="58.75" height="30" as="alternateBounds" />
          </mxGeometry>
        </mxCell>
        <mxCell id="cN46fnsZ54RdRkZos_jZ-781" value="DT_CARGA" style="shape=partialRectangle;connectable=0;fillColor=none;top=0;left=0;bottom=0;right=0;align=left;spacingLeft=6;overflow=hidden;whiteSpace=wrap;html=1;" vertex="1" parent="cN46fnsZ54RdRkZos_jZ-779">
          <mxGeometry x="58.75" width="271.25" height="30" as="geometry">
            <mxRectangle width="271.25" height="30" as="alternateBounds" />
          </mxGeometry>
        </mxCell>
        <mxCell id="cN46fnsZ54RdRkZos_jZ-782" style="edgeStyle=orthogonalEdgeStyle;rounded=0;orthogonalLoop=1;jettySize=auto;html=1;exitX=0;exitY=0.5;exitDx=0;exitDy=0;entryX=1;entryY=0.5;entryDx=0;entryDy=0;endArrow=ERoneToMany;endFill=0;startArrow=ERone;startFill=0;" edge="1" parent="1" source="cN46fnsZ54RdRkZos_jZ-784" target="cN46fnsZ54RdRkZos_jZ-731">
          <mxGeometry relative="1" as="geometry">
            <Array as="points">
              <mxPoint x="-477" y="850" />
              <mxPoint x="-477" y="711" />
            </Array>
          </mxGeometry>
        </mxCell>
        <mxCell id="cN46fnsZ54RdRkZos_jZ-783" value="D_OCUPACAO" style="shape=table;startSize=30;container=1;collapsible=1;childLayout=tableLayout;fixedRows=1;rowLines=0;fontStyle=1;align=center;resizeLast=1;html=1;" vertex="1" parent="1">
          <mxGeometry x="-459" y="805" width="265" height="154" as="geometry" />
        </mxCell>
        <mxCell id="cN46fnsZ54RdRkZos_jZ-784" value="" style="shape=tableRow;horizontal=0;startSize=0;swimlaneHead=0;swimlaneBody=0;fillColor=none;collapsible=0;dropTarget=0;points=[[0,0.5],[1,0.5]];portConstraint=eastwest;top=0;left=0;right=0;bottom=1;" vertex="1" parent="cN46fnsZ54RdRkZos_jZ-783">
          <mxGeometry y="30" width="265" height="30" as="geometry" />
        </mxCell>
        <mxCell id="cN46fnsZ54RdRkZos_jZ-785" value="int" style="shape=partialRectangle;connectable=0;fillColor=none;top=0;left=0;bottom=0;right=0;fontStyle=1;overflow=hidden;whiteSpace=wrap;html=1;" vertex="1" parent="cN46fnsZ54RdRkZos_jZ-784">
          <mxGeometry width="64.11999999999989" height="30" as="geometry">
            <mxRectangle width="64.11999999999989" height="30" as="alternateBounds" />
          </mxGeometry>
        </mxCell>
        <mxCell id="cN46fnsZ54RdRkZos_jZ-786" value="SK_OCUPACAO" style="shape=partialRectangle;connectable=0;fillColor=none;top=0;left=0;bottom=0;right=0;align=left;spacingLeft=6;fontStyle=5;overflow=hidden;whiteSpace=wrap;html=1;" vertex="1" parent="cN46fnsZ54RdRkZos_jZ-784">
          <mxGeometry x="64.11999999999989" width="200.8800000000001" height="30" as="geometry">
            <mxRectangle width="200.8800000000001" height="30" as="alternateBounds" />
          </mxGeometry>
        </mxCell>
        <mxCell id="cN46fnsZ54RdRkZos_jZ-787" value="" style="shape=tableRow;horizontal=0;startSize=0;swimlaneHead=0;swimlaneBody=0;fillColor=none;collapsible=0;dropTarget=0;points=[[0,0.5],[1,0.5]];portConstraint=eastwest;top=0;left=0;right=0;bottom=0;" vertex="1" parent="cN46fnsZ54RdRkZos_jZ-783">
          <mxGeometry y="60" width="265" height="34" as="geometry" />
        </mxCell>
        <mxCell id="cN46fnsZ54RdRkZos_jZ-788" value="int" style="shape=partialRectangle;connectable=0;fillColor=none;top=0;left=0;bottom=0;right=0;editable=1;overflow=hidden;whiteSpace=wrap;html=1;" vertex="1" parent="cN46fnsZ54RdRkZos_jZ-787">
          <mxGeometry width="64.11999999999989" height="34" as="geometry">
            <mxRectangle width="64.11999999999989" height="34" as="alternateBounds" />
          </mxGeometry>
        </mxCell>
        <mxCell id="cN46fnsZ54RdRkZos_jZ-789" value="CD_OCUPACAO" style="shape=partialRectangle;connectable=0;fillColor=none;top=0;left=0;bottom=0;right=0;align=left;spacingLeft=6;overflow=hidden;whiteSpace=wrap;html=1;" vertex="1" parent="cN46fnsZ54RdRkZos_jZ-787">
          <mxGeometry x="64.11999999999989" width="200.8800000000001" height="34" as="geometry">
            <mxRectangle width="200.8800000000001" height="34" as="alternateBounds" />
          </mxGeometry>
        </mxCell>
        <mxCell id="cN46fnsZ54RdRkZos_jZ-790" value="" style="shape=tableRow;horizontal=0;startSize=0;swimlaneHead=0;swimlaneBody=0;fillColor=none;collapsible=0;dropTarget=0;points=[[0,0.5],[1,0.5]];portConstraint=eastwest;top=0;left=0;right=0;bottom=0;" vertex="1" parent="cN46fnsZ54RdRkZos_jZ-783">
          <mxGeometry y="94" width="265" height="30" as="geometry" />
        </mxCell>
        <mxCell id="cN46fnsZ54RdRkZos_jZ-791" value="text" style="shape=partialRectangle;connectable=0;fillColor=none;top=0;left=0;bottom=0;right=0;editable=1;overflow=hidden;whiteSpace=wrap;html=1;" vertex="1" parent="cN46fnsZ54RdRkZos_jZ-790">
          <mxGeometry width="64.11999999999989" height="30" as="geometry">
            <mxRectangle width="64.11999999999989" height="30" as="alternateBounds" />
          </mxGeometry>
        </mxCell>
        <mxCell id="cN46fnsZ54RdRkZos_jZ-792" value="DS_OCUPACAO" style="shape=partialRectangle;connectable=0;fillColor=none;top=0;left=0;bottom=0;right=0;align=left;spacingLeft=6;overflow=hidden;whiteSpace=wrap;html=1;" vertex="1" parent="cN46fnsZ54RdRkZos_jZ-790">
          <mxGeometry x="64.11999999999989" width="200.8800000000001" height="30" as="geometry">
            <mxRectangle width="200.8800000000001" height="30" as="alternateBounds" />
          </mxGeometry>
        </mxCell>
        <mxCell id="cN46fnsZ54RdRkZos_jZ-793" value="" style="shape=tableRow;horizontal=0;startSize=0;swimlaneHead=0;swimlaneBody=0;fillColor=none;collapsible=0;dropTarget=0;points=[[0,0.5],[1,0.5]];portConstraint=eastwest;top=0;left=0;right=0;bottom=0;" vertex="1" parent="cN46fnsZ54RdRkZos_jZ-783">
          <mxGeometry y="124" width="265" height="30" as="geometry" />
        </mxCell>
        <mxCell id="cN46fnsZ54RdRkZos_jZ-794" value="timestamp" style="shape=partialRectangle;connectable=0;fillColor=none;top=0;left=0;bottom=0;right=0;editable=1;overflow=hidden;whiteSpace=wrap;html=1;" vertex="1" parent="cN46fnsZ54RdRkZos_jZ-793">
          <mxGeometry width="64.11999999999989" height="30" as="geometry">
            <mxRectangle width="64.11999999999989" height="30" as="alternateBounds" />
          </mxGeometry>
        </mxCell>
        <mxCell id="cN46fnsZ54RdRkZos_jZ-795" value="DT_CARGA" style="shape=partialRectangle;connectable=0;fillColor=none;top=0;left=0;bottom=0;right=0;align=left;spacingLeft=6;overflow=hidden;whiteSpace=wrap;html=1;" vertex="1" parent="cN46fnsZ54RdRkZos_jZ-793">
          <mxGeometry x="64.11999999999989" width="200.8800000000001" height="30" as="geometry">
            <mxRectangle width="200.8800000000001" height="30" as="alternateBounds" />
          </mxGeometry>
        </mxCell>
        <mxCell id="cN46fnsZ54RdRkZos_jZ-796" value="D_CID" style="shape=table;startSize=30;container=1;collapsible=1;childLayout=tableLayout;fixedRows=1;rowLines=0;fontStyle=1;align=center;resizeLast=1;html=1;" vertex="1" parent="1">
          <mxGeometry x="-459" y="1379" width="258.3913043478262" height="270" as="geometry" />
        </mxCell>
        <mxCell id="cN46fnsZ54RdRkZos_jZ-797" value="" style="shape=tableRow;horizontal=0;startSize=0;swimlaneHead=0;swimlaneBody=0;fillColor=none;collapsible=0;dropTarget=0;points=[[0,0.5],[1,0.5]];portConstraint=eastwest;top=0;left=0;right=0;bottom=1;" vertex="1" parent="cN46fnsZ54RdRkZos_jZ-796">
          <mxGeometry y="30" width="258.3913043478262" height="30" as="geometry" />
        </mxCell>
        <mxCell id="cN46fnsZ54RdRkZos_jZ-798" value="int" style="shape=partialRectangle;connectable=0;fillColor=none;top=0;left=0;bottom=0;right=0;fontStyle=1;overflow=hidden;whiteSpace=wrap;html=1;" vertex="1" parent="cN46fnsZ54RdRkZos_jZ-797">
          <mxGeometry width="63.11999999999989" height="30" as="geometry">
            <mxRectangle width="63.11999999999989" height="30" as="alternateBounds" />
          </mxGeometry>
        </mxCell>
        <mxCell id="cN46fnsZ54RdRkZos_jZ-799" value="SK_CID" style="shape=partialRectangle;connectable=0;fillColor=none;top=0;left=0;bottom=0;right=0;align=left;spacingLeft=6;fontStyle=5;overflow=hidden;whiteSpace=wrap;html=1;" vertex="1" parent="cN46fnsZ54RdRkZos_jZ-797">
          <mxGeometry x="63.11999999999989" width="195.2713043478263" height="30" as="geometry">
            <mxRectangle width="195.2713043478263" height="30" as="alternateBounds" />
          </mxGeometry>
        </mxCell>
        <mxCell id="cN46fnsZ54RdRkZos_jZ-800" value="" style="shape=tableRow;horizontal=0;startSize=0;swimlaneHead=0;swimlaneBody=0;fillColor=none;collapsible=0;dropTarget=0;points=[[0,0.5],[1,0.5]];portConstraint=eastwest;top=0;left=0;right=0;bottom=0;" vertex="1" parent="cN46fnsZ54RdRkZos_jZ-796">
          <mxGeometry y="60" width="258.3913043478262" height="30" as="geometry" />
        </mxCell>
        <mxCell id="cN46fnsZ54RdRkZos_jZ-801" value="int" style="shape=partialRectangle;connectable=0;fillColor=none;top=0;left=0;bottom=0;right=0;editable=1;overflow=hidden;whiteSpace=wrap;html=1;" vertex="1" parent="cN46fnsZ54RdRkZos_jZ-800">
          <mxGeometry width="63.11999999999989" height="30" as="geometry">
            <mxRectangle width="63.11999999999989" height="30" as="alternateBounds" />
          </mxGeometry>
        </mxCell>
        <mxCell id="cN46fnsZ54RdRkZos_jZ-802" value="CD_CID" style="shape=partialRectangle;connectable=0;fillColor=none;top=0;left=0;bottom=0;right=0;align=left;spacingLeft=6;overflow=hidden;whiteSpace=wrap;html=1;" vertex="1" parent="cN46fnsZ54RdRkZos_jZ-800">
          <mxGeometry x="63.11999999999989" width="195.2713043478263" height="30" as="geometry">
            <mxRectangle width="195.2713043478263" height="30" as="alternateBounds" />
          </mxGeometry>
        </mxCell>
        <mxCell id="cN46fnsZ54RdRkZos_jZ-803" value="" style="shape=tableRow;horizontal=0;startSize=0;swimlaneHead=0;swimlaneBody=0;fillColor=none;collapsible=0;dropTarget=0;points=[[0,0.5],[1,0.5]];portConstraint=eastwest;top=0;left=0;right=0;bottom=0;" vertex="1" parent="cN46fnsZ54RdRkZos_jZ-796">
          <mxGeometry y="90" width="258.3913043478262" height="30" as="geometry" />
        </mxCell>
        <mxCell id="cN46fnsZ54RdRkZos_jZ-804" value="text" style="shape=partialRectangle;connectable=0;fillColor=none;top=0;left=0;bottom=0;right=0;editable=1;overflow=hidden;whiteSpace=wrap;html=1;" vertex="1" parent="cN46fnsZ54RdRkZos_jZ-803">
          <mxGeometry width="63.11999999999989" height="30" as="geometry">
            <mxRectangle width="63.11999999999989" height="30" as="alternateBounds" />
          </mxGeometry>
        </mxCell>
        <mxCell id="cN46fnsZ54RdRkZos_jZ-805" value="DS_CAPITULO" style="shape=partialRectangle;connectable=0;fillColor=none;top=0;left=0;bottom=0;right=0;align=left;spacingLeft=6;overflow=hidden;whiteSpace=wrap;html=1;" vertex="1" parent="cN46fnsZ54RdRkZos_jZ-803">
          <mxGeometry x="63.11999999999989" width="195.2713043478263" height="30" as="geometry">
            <mxRectangle width="195.2713043478263" height="30" as="alternateBounds" />
          </mxGeometry>
        </mxCell>
        <mxCell id="cN46fnsZ54RdRkZos_jZ-806" value="" style="shape=tableRow;horizontal=0;startSize=0;swimlaneHead=0;swimlaneBody=0;fillColor=none;collapsible=0;dropTarget=0;points=[[0,0.5],[1,0.5]];portConstraint=eastwest;top=0;left=0;right=0;bottom=0;" vertex="1" parent="cN46fnsZ54RdRkZos_jZ-796">
          <mxGeometry y="120" width="258.3913043478262" height="30" as="geometry" />
        </mxCell>
        <mxCell id="cN46fnsZ54RdRkZos_jZ-807" value="text" style="shape=partialRectangle;connectable=0;fillColor=none;top=0;left=0;bottom=0;right=0;editable=1;overflow=hidden;whiteSpace=wrap;html=1;" vertex="1" parent="cN46fnsZ54RdRkZos_jZ-806">
          <mxGeometry width="63.11999999999989" height="30" as="geometry">
            <mxRectangle width="63.11999999999989" height="30" as="alternateBounds" />
          </mxGeometry>
        </mxCell>
        <mxCell id="cN46fnsZ54RdRkZos_jZ-808" value="DS_CATEGORIA" style="shape=partialRectangle;connectable=0;fillColor=none;top=0;left=0;bottom=0;right=0;align=left;spacingLeft=6;overflow=hidden;whiteSpace=wrap;html=1;" vertex="1" parent="cN46fnsZ54RdRkZos_jZ-806">
          <mxGeometry x="63.11999999999989" width="195.2713043478263" height="30" as="geometry">
            <mxRectangle width="195.2713043478263" height="30" as="alternateBounds" />
          </mxGeometry>
        </mxCell>
        <mxCell id="cN46fnsZ54RdRkZos_jZ-809" value="" style="shape=tableRow;horizontal=0;startSize=0;swimlaneHead=0;swimlaneBody=0;fillColor=none;collapsible=0;dropTarget=0;points=[[0,0.5],[1,0.5]];portConstraint=eastwest;top=0;left=0;right=0;bottom=0;" vertex="1" parent="cN46fnsZ54RdRkZos_jZ-796">
          <mxGeometry y="150" width="258.3913043478262" height="30" as="geometry" />
        </mxCell>
        <mxCell id="cN46fnsZ54RdRkZos_jZ-810" value="text" style="shape=partialRectangle;connectable=0;fillColor=none;top=0;left=0;bottom=0;right=0;editable=1;overflow=hidden;whiteSpace=wrap;html=1;" vertex="1" parent="cN46fnsZ54RdRkZos_jZ-809">
          <mxGeometry width="63.11999999999989" height="30" as="geometry">
            <mxRectangle width="63.11999999999989" height="30" as="alternateBounds" />
          </mxGeometry>
        </mxCell>
        <mxCell id="cN46fnsZ54RdRkZos_jZ-811" value="DS_SUBCATEGORIA" style="shape=partialRectangle;connectable=0;fillColor=none;top=0;left=0;bottom=0;right=0;align=left;spacingLeft=6;overflow=hidden;whiteSpace=wrap;html=1;" vertex="1" parent="cN46fnsZ54RdRkZos_jZ-809">
          <mxGeometry x="63.11999999999989" width="195.2713043478263" height="30" as="geometry">
            <mxRectangle width="195.2713043478263" height="30" as="alternateBounds" />
          </mxGeometry>
        </mxCell>
        <mxCell id="cN46fnsZ54RdRkZos_jZ-812" value="" style="shape=tableRow;horizontal=0;startSize=0;swimlaneHead=0;swimlaneBody=0;fillColor=none;collapsible=0;dropTarget=0;points=[[0,0.5],[1,0.5]];portConstraint=eastwest;top=0;left=0;right=0;bottom=0;" vertex="1" parent="cN46fnsZ54RdRkZos_jZ-796">
          <mxGeometry y="180" width="258.3913043478262" height="30" as="geometry" />
        </mxCell>
        <mxCell id="cN46fnsZ54RdRkZos_jZ-813" value="text" style="shape=partialRectangle;connectable=0;fillColor=none;top=0;left=0;bottom=0;right=0;editable=1;overflow=hidden;whiteSpace=wrap;html=1;" vertex="1" parent="cN46fnsZ54RdRkZos_jZ-812">
          <mxGeometry width="63.11999999999989" height="30" as="geometry">
            <mxRectangle width="63.11999999999989" height="30" as="alternateBounds" />
          </mxGeometry>
        </mxCell>
        <mxCell id="cN46fnsZ54RdRkZos_jZ-814" value="FL_RESTRICAO_SEXO" style="shape=partialRectangle;connectable=0;fillColor=none;top=0;left=0;bottom=0;right=0;align=left;spacingLeft=6;overflow=hidden;whiteSpace=wrap;html=1;" vertex="1" parent="cN46fnsZ54RdRkZos_jZ-812">
          <mxGeometry x="63.11999999999989" width="195.2713043478263" height="30" as="geometry">
            <mxRectangle width="195.2713043478263" height="30" as="alternateBounds" />
          </mxGeometry>
        </mxCell>
        <mxCell id="cN46fnsZ54RdRkZos_jZ-815" value="" style="shape=tableRow;horizontal=0;startSize=0;swimlaneHead=0;swimlaneBody=0;fillColor=none;collapsible=0;dropTarget=0;points=[[0,0.5],[1,0.5]];portConstraint=eastwest;top=0;left=0;right=0;bottom=0;" vertex="1" parent="cN46fnsZ54RdRkZos_jZ-796">
          <mxGeometry y="210" width="258.3913043478262" height="30" as="geometry" />
        </mxCell>
        <mxCell id="cN46fnsZ54RdRkZos_jZ-816" value="text" style="shape=partialRectangle;connectable=0;fillColor=none;top=0;left=0;bottom=0;right=0;editable=1;overflow=hidden;whiteSpace=wrap;html=1;" vertex="1" parent="cN46fnsZ54RdRkZos_jZ-815">
          <mxGeometry width="63.11999999999989" height="30" as="geometry">
            <mxRectangle width="63.11999999999989" height="30" as="alternateBounds" />
          </mxGeometry>
        </mxCell>
        <mxCell id="cN46fnsZ54RdRkZos_jZ-817" value="FL_CAUSA_OBITO" style="shape=partialRectangle;connectable=0;fillColor=none;top=0;left=0;bottom=0;right=0;align=left;spacingLeft=6;overflow=hidden;whiteSpace=wrap;html=1;" vertex="1" parent="cN46fnsZ54RdRkZos_jZ-815">
          <mxGeometry x="63.11999999999989" width="195.2713043478263" height="30" as="geometry">
            <mxRectangle width="195.2713043478263" height="30" as="alternateBounds" />
          </mxGeometry>
        </mxCell>
        <mxCell id="cN46fnsZ54RdRkZos_jZ-818" value="" style="shape=tableRow;horizontal=0;startSize=0;swimlaneHead=0;swimlaneBody=0;fillColor=none;collapsible=0;dropTarget=0;points=[[0,0.5],[1,0.5]];portConstraint=eastwest;top=0;left=0;right=0;bottom=0;" vertex="1" parent="cN46fnsZ54RdRkZos_jZ-796">
          <mxGeometry y="240" width="258.3913043478262" height="30" as="geometry" />
        </mxCell>
        <mxCell id="cN46fnsZ54RdRkZos_jZ-819" value="timestamp" style="shape=partialRectangle;connectable=0;fillColor=none;top=0;left=0;bottom=0;right=0;editable=1;overflow=hidden;whiteSpace=wrap;html=1;" vertex="1" parent="cN46fnsZ54RdRkZos_jZ-818">
          <mxGeometry width="63.11999999999989" height="30" as="geometry">
            <mxRectangle width="63.11999999999989" height="30" as="alternateBounds" />
          </mxGeometry>
        </mxCell>
        <mxCell id="cN46fnsZ54RdRkZos_jZ-820" value="DT_CARGA" style="shape=partialRectangle;connectable=0;fillColor=none;top=0;left=0;bottom=0;right=0;align=left;spacingLeft=6;overflow=hidden;whiteSpace=wrap;html=1;" vertex="1" parent="cN46fnsZ54RdRkZos_jZ-818">
          <mxGeometry x="63.11999999999989" width="195.2713043478263" height="30" as="geometry">
            <mxRectangle width="195.2713043478263" height="30" as="alternateBounds" />
          </mxGeometry>
        </mxCell>
        <mxCell id="cN46fnsZ54RdRkZos_jZ-821" style="edgeStyle=orthogonalEdgeStyle;rounded=0;orthogonalLoop=1;jettySize=auto;html=1;endArrow=ERoneToMany;endFill=0;startArrow=ERone;startFill=0;entryX=0;entryY=0.5;entryDx=0;entryDy=0;exitX=0;exitY=0.5;exitDx=0;exitDy=0;" edge="1" parent="1" source="cN46fnsZ54RdRkZos_jZ-823" target="cN46fnsZ54RdRkZos_jZ-734">
          <mxGeometry relative="1" as="geometry">
            <mxPoint x="-911" y="366" as="sourcePoint" />
            <Array as="points">
              <mxPoint x="-940" y="360" />
              <mxPoint x="-940" y="741" />
            </Array>
          </mxGeometry>
        </mxCell>
        <mxCell id="cN46fnsZ54RdRkZos_jZ-822" value="D_NATURALIDADE" style="shape=table;startSize=30;container=1;collapsible=1;childLayout=tableLayout;fixedRows=1;rowLines=0;fontStyle=1;align=center;resizeLast=1;html=1;" vertex="1" parent="1">
          <mxGeometry x="-895" y="315" width="330" height="181" as="geometry" />
        </mxCell>
        <mxCell id="cN46fnsZ54RdRkZos_jZ-823" value="" style="shape=tableRow;horizontal=0;startSize=0;swimlaneHead=0;swimlaneBody=0;fillColor=none;collapsible=0;dropTarget=0;points=[[0,0.5],[1,0.5]];portConstraint=eastwest;top=0;left=0;right=0;bottom=1;" vertex="1" parent="cN46fnsZ54RdRkZos_jZ-822">
          <mxGeometry y="30" width="330" height="30" as="geometry" />
        </mxCell>
        <mxCell id="cN46fnsZ54RdRkZos_jZ-824" value="int" style="shape=partialRectangle;connectable=0;fillColor=none;top=0;left=0;bottom=0;right=0;fontStyle=1;overflow=hidden;whiteSpace=wrap;html=1;" vertex="1" parent="cN46fnsZ54RdRkZos_jZ-823">
          <mxGeometry width="63.11999999999989" height="30" as="geometry">
            <mxRectangle width="63.11999999999989" height="30" as="alternateBounds" />
          </mxGeometry>
        </mxCell>
        <mxCell id="cN46fnsZ54RdRkZos_jZ-825" value="SK_NATURALIDADE" style="shape=partialRectangle;connectable=0;fillColor=none;top=0;left=0;bottom=0;right=0;align=left;spacingLeft=6;fontStyle=5;overflow=hidden;whiteSpace=wrap;html=1;" vertex="1" parent="cN46fnsZ54RdRkZos_jZ-823">
          <mxGeometry x="63.11999999999989" width="266.8800000000001" height="30" as="geometry">
            <mxRectangle width="266.8800000000001" height="30" as="alternateBounds" />
          </mxGeometry>
        </mxCell>
        <mxCell id="cN46fnsZ54RdRkZos_jZ-826" value="" style="shape=tableRow;horizontal=0;startSize=0;swimlaneHead=0;swimlaneBody=0;fillColor=none;collapsible=0;dropTarget=0;points=[[0,0.5],[1,0.5]];portConstraint=eastwest;top=0;left=0;right=0;bottom=0;" vertex="1" parent="cN46fnsZ54RdRkZos_jZ-822">
          <mxGeometry y="60" width="330" height="30" as="geometry" />
        </mxCell>
        <mxCell id="cN46fnsZ54RdRkZos_jZ-827" value="int" style="shape=partialRectangle;connectable=0;fillColor=none;top=0;left=0;bottom=0;right=0;editable=1;overflow=hidden;whiteSpace=wrap;html=1;" vertex="1" parent="cN46fnsZ54RdRkZos_jZ-826">
          <mxGeometry width="63.11999999999989" height="30" as="geometry">
            <mxRectangle width="63.11999999999989" height="30" as="alternateBounds" />
          </mxGeometry>
        </mxCell>
        <mxCell id="cN46fnsZ54RdRkZos_jZ-828" value="CD_NATURALIDADE" style="shape=partialRectangle;connectable=0;fillColor=none;top=0;left=0;bottom=0;right=0;align=left;spacingLeft=6;overflow=hidden;whiteSpace=wrap;html=1;" vertex="1" parent="cN46fnsZ54RdRkZos_jZ-826">
          <mxGeometry x="63.11999999999989" width="266.8800000000001" height="30" as="geometry">
            <mxRectangle width="266.8800000000001" height="30" as="alternateBounds" />
          </mxGeometry>
        </mxCell>
        <mxCell id="cN46fnsZ54RdRkZos_jZ-829" value="" style="shape=tableRow;horizontal=0;startSize=0;swimlaneHead=0;swimlaneBody=0;fillColor=none;collapsible=0;dropTarget=0;points=[[0,0.5],[1,0.5]];portConstraint=eastwest;top=0;left=0;right=0;bottom=0;" vertex="1" parent="cN46fnsZ54RdRkZos_jZ-822">
          <mxGeometry y="90" width="330" height="30" as="geometry" />
        </mxCell>
        <mxCell id="cN46fnsZ54RdRkZos_jZ-830" value="text" style="shape=partialRectangle;connectable=0;fillColor=none;top=0;left=0;bottom=0;right=0;editable=1;overflow=hidden;whiteSpace=wrap;html=1;" vertex="1" parent="cN46fnsZ54RdRkZos_jZ-829">
          <mxGeometry width="63.11999999999989" height="30" as="geometry">
            <mxRectangle width="63.11999999999989" height="30" as="alternateBounds" />
          </mxGeometry>
        </mxCell>
        <mxCell id="cN46fnsZ54RdRkZos_jZ-831" value="DS_NATURALIDADE" style="shape=partialRectangle;connectable=0;fillColor=none;top=0;left=0;bottom=0;right=0;align=left;spacingLeft=6;overflow=hidden;whiteSpace=wrap;html=1;" vertex="1" parent="cN46fnsZ54RdRkZos_jZ-829">
          <mxGeometry x="63.11999999999989" width="266.8800000000001" height="30" as="geometry">
            <mxRectangle width="266.8800000000001" height="30" as="alternateBounds" />
          </mxGeometry>
        </mxCell>
        <mxCell id="cN46fnsZ54RdRkZos_jZ-832" value="" style="shape=tableRow;horizontal=0;startSize=0;swimlaneHead=0;swimlaneBody=0;fillColor=none;collapsible=0;dropTarget=0;points=[[0,0.5],[1,0.5]];portConstraint=eastwest;top=0;left=0;right=0;bottom=0;" vertex="1" parent="cN46fnsZ54RdRkZos_jZ-822">
          <mxGeometry y="120" width="330" height="30" as="geometry" />
        </mxCell>
        <mxCell id="cN46fnsZ54RdRkZos_jZ-833" value="text" style="shape=partialRectangle;connectable=0;fillColor=none;top=0;left=0;bottom=0;right=0;editable=1;overflow=hidden;whiteSpace=wrap;html=1;" vertex="1" parent="cN46fnsZ54RdRkZos_jZ-832">
          <mxGeometry width="63.11999999999989" height="30" as="geometry">
            <mxRectangle width="63.11999999999989" height="30" as="alternateBounds" />
          </mxGeometry>
        </mxCell>
        <mxCell id="cN46fnsZ54RdRkZos_jZ-834" value="DS_NIVEL" style="shape=partialRectangle;connectable=0;fillColor=none;top=0;left=0;bottom=0;right=0;align=left;spacingLeft=6;overflow=hidden;whiteSpace=wrap;html=1;" vertex="1" parent="cN46fnsZ54RdRkZos_jZ-832">
          <mxGeometry x="63.11999999999989" width="266.8800000000001" height="30" as="geometry">
            <mxRectangle width="266.8800000000001" height="30" as="alternateBounds" />
          </mxGeometry>
        </mxCell>
        <mxCell id="cN46fnsZ54RdRkZos_jZ-835" value="" style="shape=tableRow;horizontal=0;startSize=0;swimlaneHead=0;swimlaneBody=0;fillColor=none;collapsible=0;dropTarget=0;points=[[0,0.5],[1,0.5]];portConstraint=eastwest;top=0;left=0;right=0;bottom=0;" vertex="1" parent="cN46fnsZ54RdRkZos_jZ-822">
          <mxGeometry y="150" width="330" height="30" as="geometry" />
        </mxCell>
        <mxCell id="cN46fnsZ54RdRkZos_jZ-836" value="timestamp" style="shape=partialRectangle;connectable=0;fillColor=none;top=0;left=0;bottom=0;right=0;editable=1;overflow=hidden;whiteSpace=wrap;html=1;" vertex="1" parent="cN46fnsZ54RdRkZos_jZ-835">
          <mxGeometry width="63.11999999999989" height="30" as="geometry">
            <mxRectangle width="63.11999999999989" height="30" as="alternateBounds" />
          </mxGeometry>
        </mxCell>
        <mxCell id="cN46fnsZ54RdRkZos_jZ-837" value="DT_CARGA" style="shape=partialRectangle;connectable=0;fillColor=none;top=0;left=0;bottom=0;right=0;align=left;spacingLeft=6;overflow=hidden;whiteSpace=wrap;html=1;" vertex="1" parent="cN46fnsZ54RdRkZos_jZ-835">
          <mxGeometry x="63.11999999999989" width="266.8800000000001" height="30" as="geometry">
            <mxRectangle width="266.8800000000001" height="30" as="alternateBounds" />
          </mxGeometry>
        </mxCell>
        <mxCell id="cN46fnsZ54RdRkZos_jZ-838" value="D_RACA_COR" style="shape=table;startSize=30;container=1;collapsible=1;childLayout=tableLayout;fixedRows=1;rowLines=0;fontStyle=1;align=center;resizeLast=1;html=1;" vertex="1" parent="1">
          <mxGeometry x="-459" y="1031" width="262" height="150" as="geometry" />
        </mxCell>
        <mxCell id="cN46fnsZ54RdRkZos_jZ-839" value="" style="shape=tableRow;horizontal=0;startSize=0;swimlaneHead=0;swimlaneBody=0;fillColor=none;collapsible=0;dropTarget=0;points=[[0,0.5],[1,0.5]];portConstraint=eastwest;top=0;left=0;right=0;bottom=1;" vertex="1" parent="cN46fnsZ54RdRkZos_jZ-838">
          <mxGeometry y="30" width="262" height="30" as="geometry" />
        </mxCell>
        <mxCell id="cN46fnsZ54RdRkZos_jZ-840" value="int" style="shape=partialRectangle;connectable=0;fillColor=none;top=0;left=0;bottom=0;right=0;fontStyle=1;overflow=hidden;whiteSpace=wrap;html=1;" vertex="1" parent="cN46fnsZ54RdRkZos_jZ-839">
          <mxGeometry width="61.11999999999989" height="30" as="geometry">
            <mxRectangle width="61.11999999999989" height="30" as="alternateBounds" />
          </mxGeometry>
        </mxCell>
        <mxCell id="cN46fnsZ54RdRkZos_jZ-841" value="SK_RACA_COR" style="shape=partialRectangle;connectable=0;fillColor=none;top=0;left=0;bottom=0;right=0;align=left;spacingLeft=6;fontStyle=5;overflow=hidden;whiteSpace=wrap;html=1;" vertex="1" parent="cN46fnsZ54RdRkZos_jZ-839">
          <mxGeometry x="61.11999999999989" width="200.8800000000001" height="30" as="geometry">
            <mxRectangle width="200.8800000000001" height="30" as="alternateBounds" />
          </mxGeometry>
        </mxCell>
        <mxCell id="cN46fnsZ54RdRkZos_jZ-842" value="" style="shape=tableRow;horizontal=0;startSize=0;swimlaneHead=0;swimlaneBody=0;fillColor=none;collapsible=0;dropTarget=0;points=[[0,0.5],[1,0.5]];portConstraint=eastwest;top=0;left=0;right=0;bottom=0;" vertex="1" parent="cN46fnsZ54RdRkZos_jZ-838">
          <mxGeometry y="60" width="262" height="30" as="geometry" />
        </mxCell>
        <mxCell id="cN46fnsZ54RdRkZos_jZ-843" value="int" style="shape=partialRectangle;connectable=0;fillColor=none;top=0;left=0;bottom=0;right=0;editable=1;overflow=hidden;whiteSpace=wrap;html=1;" vertex="1" parent="cN46fnsZ54RdRkZos_jZ-842">
          <mxGeometry width="61.11999999999989" height="30" as="geometry">
            <mxRectangle width="61.11999999999989" height="30" as="alternateBounds" />
          </mxGeometry>
        </mxCell>
        <mxCell id="cN46fnsZ54RdRkZos_jZ-844" value="CD_RACA_COR" style="shape=partialRectangle;connectable=0;fillColor=none;top=0;left=0;bottom=0;right=0;align=left;spacingLeft=6;overflow=hidden;whiteSpace=wrap;html=1;" vertex="1" parent="cN46fnsZ54RdRkZos_jZ-842">
          <mxGeometry x="61.11999999999989" width="200.8800000000001" height="30" as="geometry">
            <mxRectangle width="200.8800000000001" height="30" as="alternateBounds" />
          </mxGeometry>
        </mxCell>
        <mxCell id="cN46fnsZ54RdRkZos_jZ-845" value="" style="shape=tableRow;horizontal=0;startSize=0;swimlaneHead=0;swimlaneBody=0;fillColor=none;collapsible=0;dropTarget=0;points=[[0,0.5],[1,0.5]];portConstraint=eastwest;top=0;left=0;right=0;bottom=0;" vertex="1" parent="cN46fnsZ54RdRkZos_jZ-838">
          <mxGeometry y="90" width="262" height="30" as="geometry" />
        </mxCell>
        <mxCell id="cN46fnsZ54RdRkZos_jZ-846" value="text" style="shape=partialRectangle;connectable=0;fillColor=none;top=0;left=0;bottom=0;right=0;editable=1;overflow=hidden;whiteSpace=wrap;html=1;" vertex="1" parent="cN46fnsZ54RdRkZos_jZ-845">
          <mxGeometry width="61.11999999999989" height="30" as="geometry">
            <mxRectangle width="61.11999999999989" height="30" as="alternateBounds" />
          </mxGeometry>
        </mxCell>
        <mxCell id="cN46fnsZ54RdRkZos_jZ-847" value="DS_RACA_COR" style="shape=partialRectangle;connectable=0;fillColor=none;top=0;left=0;bottom=0;right=0;align=left;spacingLeft=6;overflow=hidden;whiteSpace=wrap;html=1;" vertex="1" parent="cN46fnsZ54RdRkZos_jZ-845">
          <mxGeometry x="61.11999999999989" width="200.8800000000001" height="30" as="geometry">
            <mxRectangle width="200.8800000000001" height="30" as="alternateBounds" />
          </mxGeometry>
        </mxCell>
        <mxCell id="cN46fnsZ54RdRkZos_jZ-848" value="" style="shape=tableRow;horizontal=0;startSize=0;swimlaneHead=0;swimlaneBody=0;fillColor=none;collapsible=0;dropTarget=0;points=[[0,0.5],[1,0.5]];portConstraint=eastwest;top=0;left=0;right=0;bottom=0;" vertex="1" parent="cN46fnsZ54RdRkZos_jZ-838">
          <mxGeometry y="120" width="262" height="30" as="geometry" />
        </mxCell>
        <mxCell id="cN46fnsZ54RdRkZos_jZ-849" value="timestamp" style="shape=partialRectangle;connectable=0;fillColor=none;top=0;left=0;bottom=0;right=0;editable=1;overflow=hidden;whiteSpace=wrap;html=1;" vertex="1" parent="cN46fnsZ54RdRkZos_jZ-848">
          <mxGeometry width="61.11999999999989" height="30" as="geometry">
            <mxRectangle width="61.11999999999989" height="30" as="alternateBounds" />
          </mxGeometry>
        </mxCell>
        <mxCell id="cN46fnsZ54RdRkZos_jZ-850" value="DT_CARGA" style="shape=partialRectangle;connectable=0;fillColor=none;top=0;left=0;bottom=0;right=0;align=left;spacingLeft=6;overflow=hidden;whiteSpace=wrap;html=1;" vertex="1" parent="cN46fnsZ54RdRkZos_jZ-848">
          <mxGeometry x="61.11999999999989" width="200.8800000000001" height="30" as="geometry">
            <mxRectangle width="200.8800000000001" height="30" as="alternateBounds" />
          </mxGeometry>
        </mxCell>
        <mxCell id="cN46fnsZ54RdRkZos_jZ-851" value="D_SEXO" style="shape=table;startSize=30;container=1;collapsible=1;childLayout=tableLayout;fixedRows=1;rowLines=0;fontStyle=1;align=center;resizeLast=1;html=1;" vertex="1" parent="1">
          <mxGeometry x="-459" y="1197" width="260.13043478260914" height="150" as="geometry" />
        </mxCell>
        <mxCell id="cN46fnsZ54RdRkZos_jZ-852" value="" style="shape=tableRow;horizontal=0;startSize=0;swimlaneHead=0;swimlaneBody=0;fillColor=none;collapsible=0;dropTarget=0;points=[[0,0.5],[1,0.5]];portConstraint=eastwest;top=0;left=0;right=0;bottom=1;" vertex="1" parent="cN46fnsZ54RdRkZos_jZ-851">
          <mxGeometry y="30" width="260.13043478260914" height="30" as="geometry" />
        </mxCell>
        <mxCell id="cN46fnsZ54RdRkZos_jZ-853" value="int" style="shape=partialRectangle;connectable=0;fillColor=none;top=0;left=0;bottom=0;right=0;fontStyle=1;overflow=hidden;whiteSpace=wrap;html=1;" vertex="1" parent="cN46fnsZ54RdRkZos_jZ-852">
          <mxGeometry width="67.11999999999989" height="30" as="geometry">
            <mxRectangle width="67.11999999999989" height="30" as="alternateBounds" />
          </mxGeometry>
        </mxCell>
        <mxCell id="cN46fnsZ54RdRkZos_jZ-854" value="SK_SEXO" style="shape=partialRectangle;connectable=0;fillColor=none;top=0;left=0;bottom=0;right=0;align=left;spacingLeft=6;fontStyle=5;overflow=hidden;whiteSpace=wrap;html=1;" vertex="1" parent="cN46fnsZ54RdRkZos_jZ-852">
          <mxGeometry x="67.11999999999989" width="193.01043478260925" height="30" as="geometry">
            <mxRectangle width="193.01043478260925" height="30" as="alternateBounds" />
          </mxGeometry>
        </mxCell>
        <mxCell id="cN46fnsZ54RdRkZos_jZ-855" value="" style="shape=tableRow;horizontal=0;startSize=0;swimlaneHead=0;swimlaneBody=0;fillColor=none;collapsible=0;dropTarget=0;points=[[0,0.5],[1,0.5]];portConstraint=eastwest;top=0;left=0;right=0;bottom=0;" vertex="1" parent="cN46fnsZ54RdRkZos_jZ-851">
          <mxGeometry y="60" width="260.13043478260914" height="30" as="geometry" />
        </mxCell>
        <mxCell id="cN46fnsZ54RdRkZos_jZ-856" value="int" style="shape=partialRectangle;connectable=0;fillColor=none;top=0;left=0;bottom=0;right=0;editable=1;overflow=hidden;whiteSpace=wrap;html=1;" vertex="1" parent="cN46fnsZ54RdRkZos_jZ-855">
          <mxGeometry width="67.11999999999989" height="30" as="geometry">
            <mxRectangle width="67.11999999999989" height="30" as="alternateBounds" />
          </mxGeometry>
        </mxCell>
        <mxCell id="cN46fnsZ54RdRkZos_jZ-857" value="CD_SEXO" style="shape=partialRectangle;connectable=0;fillColor=none;top=0;left=0;bottom=0;right=0;align=left;spacingLeft=6;overflow=hidden;whiteSpace=wrap;html=1;" vertex="1" parent="cN46fnsZ54RdRkZos_jZ-855">
          <mxGeometry x="67.11999999999989" width="193.01043478260925" height="30" as="geometry">
            <mxRectangle width="193.01043478260925" height="30" as="alternateBounds" />
          </mxGeometry>
        </mxCell>
        <mxCell id="cN46fnsZ54RdRkZos_jZ-858" value="" style="shape=tableRow;horizontal=0;startSize=0;swimlaneHead=0;swimlaneBody=0;fillColor=none;collapsible=0;dropTarget=0;points=[[0,0.5],[1,0.5]];portConstraint=eastwest;top=0;left=0;right=0;bottom=0;" vertex="1" parent="cN46fnsZ54RdRkZos_jZ-851">
          <mxGeometry y="90" width="260.13043478260914" height="30" as="geometry" />
        </mxCell>
        <mxCell id="cN46fnsZ54RdRkZos_jZ-859" value="text" style="shape=partialRectangle;connectable=0;fillColor=none;top=0;left=0;bottom=0;right=0;editable=1;overflow=hidden;whiteSpace=wrap;html=1;" vertex="1" parent="cN46fnsZ54RdRkZos_jZ-858">
          <mxGeometry width="67.11999999999989" height="30" as="geometry">
            <mxRectangle width="67.11999999999989" height="30" as="alternateBounds" />
          </mxGeometry>
        </mxCell>
        <mxCell id="cN46fnsZ54RdRkZos_jZ-860" value="DS_SEXO" style="shape=partialRectangle;connectable=0;fillColor=none;top=0;left=0;bottom=0;right=0;align=left;spacingLeft=6;overflow=hidden;whiteSpace=wrap;html=1;" vertex="1" parent="cN46fnsZ54RdRkZos_jZ-858">
          <mxGeometry x="67.11999999999989" width="193.01043478260925" height="30" as="geometry">
            <mxRectangle width="193.01043478260925" height="30" as="alternateBounds" />
          </mxGeometry>
        </mxCell>
        <mxCell id="cN46fnsZ54RdRkZos_jZ-861" value="" style="shape=tableRow;horizontal=0;startSize=0;swimlaneHead=0;swimlaneBody=0;fillColor=none;collapsible=0;dropTarget=0;points=[[0,0.5],[1,0.5]];portConstraint=eastwest;top=0;left=0;right=0;bottom=0;" vertex="1" parent="cN46fnsZ54RdRkZos_jZ-851">
          <mxGeometry y="120" width="260.13043478260914" height="30" as="geometry" />
        </mxCell>
        <mxCell id="cN46fnsZ54RdRkZos_jZ-862" value="timestamp" style="shape=partialRectangle;connectable=0;fillColor=none;top=0;left=0;bottom=0;right=0;editable=1;overflow=hidden;whiteSpace=wrap;html=1;" vertex="1" parent="cN46fnsZ54RdRkZos_jZ-861">
          <mxGeometry width="67.11999999999989" height="30" as="geometry">
            <mxRectangle width="67.11999999999989" height="30" as="alternateBounds" />
          </mxGeometry>
        </mxCell>
        <mxCell id="cN46fnsZ54RdRkZos_jZ-863" value="DT_CARGA" style="shape=partialRectangle;connectable=0;fillColor=none;top=0;left=0;bottom=0;right=0;align=left;spacingLeft=6;overflow=hidden;whiteSpace=wrap;html=1;" vertex="1" parent="cN46fnsZ54RdRkZos_jZ-861">
          <mxGeometry x="67.11999999999989" width="193.01043478260925" height="30" as="geometry">
            <mxRectangle width="193.01043478260925" height="30" as="alternateBounds" />
          </mxGeometry>
        </mxCell>
        <mxCell id="cN46fnsZ54RdRkZos_jZ-866" style="edgeStyle=orthogonalEdgeStyle;rounded=0;orthogonalLoop=1;jettySize=auto;html=1;exitX=0;exitY=0.5;exitDx=0;exitDy=0;endArrow=ERoneToMany;endFill=0;startArrow=ERone;startFill=0;" edge="1" parent="1" source="cN46fnsZ54RdRkZos_jZ-839" target="cN46fnsZ54RdRkZos_jZ-737">
          <mxGeometry relative="1" as="geometry">
            <Array as="points">
              <mxPoint x="-491" y="1076" />
              <mxPoint x="-491" y="771" />
            </Array>
          </mxGeometry>
        </mxCell>
        <mxCell id="cN46fnsZ54RdRkZos_jZ-867" style="edgeStyle=orthogonalEdgeStyle;rounded=0;orthogonalLoop=1;jettySize=auto;html=1;exitX=0;exitY=0.5;exitDx=0;exitDy=0;endArrow=ERoneToMany;endFill=0;startArrow=ERone;startFill=0;" edge="1" parent="1" source="cN46fnsZ54RdRkZos_jZ-797" target="cN46fnsZ54RdRkZos_jZ-743">
          <mxGeometry relative="1" as="geometry">
            <Array as="points">
              <mxPoint x="-536" y="1424" />
              <mxPoint x="-536" y="831" />
            </Array>
          </mxGeometry>
        </mxCell>
        <mxCell id="cN46fnsZ54RdRkZos_jZ-869" value="D_ESTABELECIMENTO" style="shape=table;startSize=30;container=1;collapsible=1;childLayout=tableLayout;fixedRows=1;rowLines=0;fontStyle=1;align=center;resizeLast=1;html=1;" vertex="1" parent="1">
          <mxGeometry x="-68" y="320" width="330" height="211" as="geometry" />
        </mxCell>
        <mxCell id="cN46fnsZ54RdRkZos_jZ-870" value="" style="shape=tableRow;horizontal=0;startSize=0;swimlaneHead=0;swimlaneBody=0;fillColor=none;collapsible=0;dropTarget=0;points=[[0,0.5],[1,0.5]];portConstraint=eastwest;top=0;left=0;right=0;bottom=1;" vertex="1" parent="cN46fnsZ54RdRkZos_jZ-869">
          <mxGeometry y="30" width="330" height="30" as="geometry" />
        </mxCell>
        <mxCell id="cN46fnsZ54RdRkZos_jZ-871" value="int" style="shape=partialRectangle;connectable=0;fillColor=none;top=0;left=0;bottom=0;right=0;fontStyle=1;overflow=hidden;whiteSpace=wrap;html=1;" vertex="1" parent="cN46fnsZ54RdRkZos_jZ-870">
          <mxGeometry width="63.11999999999989" height="30" as="geometry">
            <mxRectangle width="63.11999999999989" height="30" as="alternateBounds" />
          </mxGeometry>
        </mxCell>
        <mxCell id="cN46fnsZ54RdRkZos_jZ-872" value="SK_ESTABELECIMENTO" style="shape=partialRectangle;connectable=0;fillColor=none;top=0;left=0;bottom=0;right=0;align=left;spacingLeft=6;fontStyle=5;overflow=hidden;whiteSpace=wrap;html=1;" vertex="1" parent="cN46fnsZ54RdRkZos_jZ-870">
          <mxGeometry x="63.11999999999989" width="266.8800000000001" height="30" as="geometry">
            <mxRectangle width="266.8800000000001" height="30" as="alternateBounds" />
          </mxGeometry>
        </mxCell>
        <mxCell id="cN46fnsZ54RdRkZos_jZ-873" value="" style="shape=tableRow;horizontal=0;startSize=0;swimlaneHead=0;swimlaneBody=0;fillColor=none;collapsible=0;dropTarget=0;points=[[0,0.5],[1,0.5]];portConstraint=eastwest;top=0;left=0;right=0;bottom=0;" vertex="1" parent="cN46fnsZ54RdRkZos_jZ-869">
          <mxGeometry y="60" width="330" height="30" as="geometry" />
        </mxCell>
        <mxCell id="cN46fnsZ54RdRkZos_jZ-874" value="text" style="shape=partialRectangle;connectable=0;fillColor=none;top=0;left=0;bottom=0;right=0;editable=1;overflow=hidden;whiteSpace=wrap;html=1;" vertex="1" parent="cN46fnsZ54RdRkZos_jZ-873">
          <mxGeometry width="63.11999999999989" height="30" as="geometry">
            <mxRectangle width="63.11999999999989" height="30" as="alternateBounds" />
          </mxGeometry>
        </mxCell>
        <mxCell id="cN46fnsZ54RdRkZos_jZ-875" value="NU_CNPJ_ESTABELECIMENTO" style="shape=partialRectangle;connectable=0;fillColor=none;top=0;left=0;bottom=0;right=0;align=left;spacingLeft=6;overflow=hidden;whiteSpace=wrap;html=1;" vertex="1" parent="cN46fnsZ54RdRkZos_jZ-873">
          <mxGeometry x="63.11999999999989" width="266.8800000000001" height="30" as="geometry">
            <mxRectangle width="266.8800000000001" height="30" as="alternateBounds" />
          </mxGeometry>
        </mxCell>
        <mxCell id="cN46fnsZ54RdRkZos_jZ-876" value="" style="shape=tableRow;horizontal=0;startSize=0;swimlaneHead=0;swimlaneBody=0;fillColor=none;collapsible=0;dropTarget=0;points=[[0,0.5],[1,0.5]];portConstraint=eastwest;top=0;left=0;right=0;bottom=0;" vertex="1" parent="cN46fnsZ54RdRkZos_jZ-869">
          <mxGeometry y="90" width="330" height="30" as="geometry" />
        </mxCell>
        <mxCell id="cN46fnsZ54RdRkZos_jZ-877" value="text" style="shape=partialRectangle;connectable=0;fillColor=none;top=0;left=0;bottom=0;right=0;editable=1;overflow=hidden;whiteSpace=wrap;html=1;" vertex="1" parent="cN46fnsZ54RdRkZos_jZ-876">
          <mxGeometry width="63.11999999999989" height="30" as="geometry">
            <mxRectangle width="63.11999999999989" height="30" as="alternateBounds" />
          </mxGeometry>
        </mxCell>
        <mxCell id="cN46fnsZ54RdRkZos_jZ-878" value="DS_REGIME" style="shape=partialRectangle;connectable=0;fillColor=none;top=0;left=0;bottom=0;right=0;align=left;spacingLeft=6;overflow=hidden;whiteSpace=wrap;html=1;" vertex="1" parent="cN46fnsZ54RdRkZos_jZ-876">
          <mxGeometry x="63.11999999999989" width="266.8800000000001" height="30" as="geometry">
            <mxRectangle width="266.8800000000001" height="30" as="alternateBounds" />
          </mxGeometry>
        </mxCell>
        <mxCell id="cN46fnsZ54RdRkZos_jZ-879" value="" style="shape=tableRow;horizontal=0;startSize=0;swimlaneHead=0;swimlaneBody=0;fillColor=none;collapsible=0;dropTarget=0;points=[[0,0.5],[1,0.5]];portConstraint=eastwest;top=0;left=0;right=0;bottom=0;" vertex="1" parent="cN46fnsZ54RdRkZos_jZ-869">
          <mxGeometry y="120" width="330" height="30" as="geometry" />
        </mxCell>
        <mxCell id="cN46fnsZ54RdRkZos_jZ-880" value="text" style="shape=partialRectangle;connectable=0;fillColor=none;top=0;left=0;bottom=0;right=0;editable=1;overflow=hidden;whiteSpace=wrap;html=1;" vertex="1" parent="cN46fnsZ54RdRkZos_jZ-879">
          <mxGeometry width="63.11999999999989" height="30" as="geometry">
            <mxRectangle width="63.11999999999989" height="30" as="alternateBounds" />
          </mxGeometry>
        </mxCell>
        <mxCell id="cN46fnsZ54RdRkZos_jZ-881" value="DS_NATUREZA_JURIDICA" style="shape=partialRectangle;connectable=0;fillColor=none;top=0;left=0;bottom=0;right=0;align=left;spacingLeft=6;overflow=hidden;whiteSpace=wrap;html=1;" vertex="1" parent="cN46fnsZ54RdRkZos_jZ-879">
          <mxGeometry x="63.11999999999989" width="266.8800000000001" height="30" as="geometry">
            <mxRectangle width="266.8800000000001" height="30" as="alternateBounds" />
          </mxGeometry>
        </mxCell>
        <mxCell id="cN46fnsZ54RdRkZos_jZ-882" value="" style="shape=tableRow;horizontal=0;startSize=0;swimlaneHead=0;swimlaneBody=0;fillColor=none;collapsible=0;dropTarget=0;points=[[0,0.5],[1,0.5]];portConstraint=eastwest;top=0;left=0;right=0;bottom=0;" vertex="1" parent="cN46fnsZ54RdRkZos_jZ-869">
          <mxGeometry y="150" width="330" height="30" as="geometry" />
        </mxCell>
        <mxCell id="cN46fnsZ54RdRkZos_jZ-883" value="text" style="shape=partialRectangle;connectable=0;fillColor=none;top=0;left=0;bottom=0;right=0;editable=1;overflow=hidden;whiteSpace=wrap;html=1;" vertex="1" parent="cN46fnsZ54RdRkZos_jZ-882">
          <mxGeometry width="63.11999999999989" height="30" as="geometry">
            <mxRectangle width="63.11999999999989" height="30" as="alternateBounds" />
          </mxGeometry>
        </mxCell>
        <mxCell id="cN46fnsZ54RdRkZos_jZ-884" value="DS_GESTAO" style="shape=partialRectangle;connectable=0;fillColor=none;top=0;left=0;bottom=0;right=0;align=left;spacingLeft=6;overflow=hidden;whiteSpace=wrap;html=1;" vertex="1" parent="cN46fnsZ54RdRkZos_jZ-882">
          <mxGeometry x="63.11999999999989" width="266.8800000000001" height="30" as="geometry">
            <mxRectangle width="266.8800000000001" height="30" as="alternateBounds" />
          </mxGeometry>
        </mxCell>
        <mxCell id="cN46fnsZ54RdRkZos_jZ-885" value="" style="shape=tableRow;horizontal=0;startSize=0;swimlaneHead=0;swimlaneBody=0;fillColor=none;collapsible=0;dropTarget=0;points=[[0,0.5],[1,0.5]];portConstraint=eastwest;top=0;left=0;right=0;bottom=0;" vertex="1" parent="cN46fnsZ54RdRkZos_jZ-869">
          <mxGeometry y="180" width="330" height="30" as="geometry" />
        </mxCell>
        <mxCell id="cN46fnsZ54RdRkZos_jZ-886" value="timestamp" style="shape=partialRectangle;connectable=0;fillColor=none;top=0;left=0;bottom=0;right=0;editable=1;overflow=hidden;whiteSpace=wrap;html=1;" vertex="1" parent="cN46fnsZ54RdRkZos_jZ-885">
          <mxGeometry width="63.11999999999989" height="30" as="geometry">
            <mxRectangle width="63.11999999999989" height="30" as="alternateBounds" />
          </mxGeometry>
        </mxCell>
        <mxCell id="cN46fnsZ54RdRkZos_jZ-887" value="DT_CARGA" style="shape=partialRectangle;connectable=0;fillColor=none;top=0;left=0;bottom=0;right=0;align=left;spacingLeft=6;overflow=hidden;whiteSpace=wrap;html=1;" vertex="1" parent="cN46fnsZ54RdRkZos_jZ-885">
          <mxGeometry x="63.11999999999989" width="266.8800000000001" height="30" as="geometry">
            <mxRectangle width="266.8800000000001" height="30" as="alternateBounds" />
          </mxGeometry>
        </mxCell>
        <mxCell id="cN46fnsZ54RdRkZos_jZ-998" style="edgeStyle=orthogonalEdgeStyle;rounded=0;orthogonalLoop=1;jettySize=auto;html=1;exitX=1;exitY=0.5;exitDx=0;exitDy=0;entryX=1;entryY=0.5;entryDx=0;entryDy=0;endArrow=ERoneToMany;endFill=0;startArrow=ERone;startFill=0;" edge="1" parent="1" source="cN46fnsZ54RdRkZos_jZ-893" target="cN46fnsZ54RdRkZos_jZ-927">
          <mxGeometry relative="1" as="geometry">
            <Array as="points">
              <mxPoint x="336" y="213" />
              <mxPoint x="336" y="770" />
            </Array>
          </mxGeometry>
        </mxCell>
        <mxCell id="cN46fnsZ54RdRkZos_jZ-889" value="D_PROCEDIMENTO" style="shape=table;startSize=30;container=1;collapsible=1;childLayout=tableLayout;fixedRows=1;rowLines=0;fontStyle=1;align=center;resizeLast=1;html=1;" vertex="1" parent="1">
          <mxGeometry x="-68" y="138" width="330" height="150" as="geometry" />
        </mxCell>
        <mxCell id="cN46fnsZ54RdRkZos_jZ-890" value="" style="shape=tableRow;horizontal=0;startSize=0;swimlaneHead=0;swimlaneBody=0;fillColor=none;collapsible=0;dropTarget=0;points=[[0,0.5],[1,0.5]];portConstraint=eastwest;top=0;left=0;right=0;bottom=1;" vertex="1" parent="cN46fnsZ54RdRkZos_jZ-889">
          <mxGeometry y="30" width="330" height="30" as="geometry" />
        </mxCell>
        <mxCell id="cN46fnsZ54RdRkZos_jZ-891" value="int" style="shape=partialRectangle;connectable=0;fillColor=none;top=0;left=0;bottom=0;right=0;fontStyle=1;overflow=hidden;whiteSpace=wrap;html=1;" vertex="1" parent="cN46fnsZ54RdRkZos_jZ-890">
          <mxGeometry width="67.11999999999989" height="30" as="geometry">
            <mxRectangle width="67.11999999999989" height="30" as="alternateBounds" />
          </mxGeometry>
        </mxCell>
        <mxCell id="cN46fnsZ54RdRkZos_jZ-892" value="SK_PROCEDIMENTO" style="shape=partialRectangle;connectable=0;fillColor=none;top=0;left=0;bottom=0;right=0;align=left;spacingLeft=6;fontStyle=5;overflow=hidden;whiteSpace=wrap;html=1;" vertex="1" parent="cN46fnsZ54RdRkZos_jZ-890">
          <mxGeometry x="67.11999999999989" width="262.8800000000001" height="30" as="geometry">
            <mxRectangle width="262.8800000000001" height="30" as="alternateBounds" />
          </mxGeometry>
        </mxCell>
        <mxCell id="cN46fnsZ54RdRkZos_jZ-893" value="" style="shape=tableRow;horizontal=0;startSize=0;swimlaneHead=0;swimlaneBody=0;fillColor=none;collapsible=0;dropTarget=0;points=[[0,0.5],[1,0.5]];portConstraint=eastwest;top=0;left=0;right=0;bottom=0;" vertex="1" parent="cN46fnsZ54RdRkZos_jZ-889">
          <mxGeometry y="60" width="330" height="30" as="geometry" />
        </mxCell>
        <mxCell id="cN46fnsZ54RdRkZos_jZ-894" value="int" style="shape=partialRectangle;connectable=0;fillColor=none;top=0;left=0;bottom=0;right=0;editable=1;overflow=hidden;whiteSpace=wrap;html=1;" vertex="1" parent="cN46fnsZ54RdRkZos_jZ-893">
          <mxGeometry width="67.11999999999989" height="30" as="geometry">
            <mxRectangle width="67.11999999999989" height="30" as="alternateBounds" />
          </mxGeometry>
        </mxCell>
        <mxCell id="cN46fnsZ54RdRkZos_jZ-895" value="CD_PROCEDIMENTO" style="shape=partialRectangle;connectable=0;fillColor=none;top=0;left=0;bottom=0;right=0;align=left;spacingLeft=6;overflow=hidden;whiteSpace=wrap;html=1;" vertex="1" parent="cN46fnsZ54RdRkZos_jZ-893">
          <mxGeometry x="67.11999999999989" width="262.8800000000001" height="30" as="geometry">
            <mxRectangle width="262.8800000000001" height="30" as="alternateBounds" />
          </mxGeometry>
        </mxCell>
        <mxCell id="cN46fnsZ54RdRkZos_jZ-896" value="" style="shape=tableRow;horizontal=0;startSize=0;swimlaneHead=0;swimlaneBody=0;fillColor=none;collapsible=0;dropTarget=0;points=[[0,0.5],[1,0.5]];portConstraint=eastwest;top=0;left=0;right=0;bottom=0;" vertex="1" parent="cN46fnsZ54RdRkZos_jZ-889">
          <mxGeometry y="90" width="330" height="30" as="geometry" />
        </mxCell>
        <mxCell id="cN46fnsZ54RdRkZos_jZ-897" value="text" style="shape=partialRectangle;connectable=0;fillColor=none;top=0;left=0;bottom=0;right=0;editable=1;overflow=hidden;whiteSpace=wrap;html=1;" vertex="1" parent="cN46fnsZ54RdRkZos_jZ-896">
          <mxGeometry width="67.11999999999989" height="30" as="geometry">
            <mxRectangle width="67.11999999999989" height="30" as="alternateBounds" />
          </mxGeometry>
        </mxCell>
        <mxCell id="cN46fnsZ54RdRkZos_jZ-898" value="DS_PROCEDIMENTO" style="shape=partialRectangle;connectable=0;fillColor=none;top=0;left=0;bottom=0;right=0;align=left;spacingLeft=6;overflow=hidden;whiteSpace=wrap;html=1;" vertex="1" parent="cN46fnsZ54RdRkZos_jZ-896">
          <mxGeometry x="67.11999999999989" width="262.8800000000001" height="30" as="geometry">
            <mxRectangle width="262.8800000000001" height="30" as="alternateBounds" />
          </mxGeometry>
        </mxCell>
        <mxCell id="cN46fnsZ54RdRkZos_jZ-899" value="" style="shape=tableRow;horizontal=0;startSize=0;swimlaneHead=0;swimlaneBody=0;fillColor=none;collapsible=0;dropTarget=0;points=[[0,0.5],[1,0.5]];portConstraint=eastwest;top=0;left=0;right=0;bottom=0;" vertex="1" parent="cN46fnsZ54RdRkZos_jZ-889">
          <mxGeometry y="120" width="330" height="30" as="geometry" />
        </mxCell>
        <mxCell id="cN46fnsZ54RdRkZos_jZ-900" value="timestamp" style="shape=partialRectangle;connectable=0;fillColor=none;top=0;left=0;bottom=0;right=0;editable=1;overflow=hidden;whiteSpace=wrap;html=1;" vertex="1" parent="cN46fnsZ54RdRkZos_jZ-899">
          <mxGeometry width="67.11999999999989" height="30" as="geometry">
            <mxRectangle width="67.11999999999989" height="30" as="alternateBounds" />
          </mxGeometry>
        </mxCell>
        <mxCell id="cN46fnsZ54RdRkZos_jZ-901" value="DT_CARGA" style="shape=partialRectangle;connectable=0;fillColor=none;top=0;left=0;bottom=0;right=0;align=left;spacingLeft=6;overflow=hidden;whiteSpace=wrap;html=1;" vertex="1" parent="cN46fnsZ54RdRkZos_jZ-899">
          <mxGeometry x="67.11999999999989" width="262.8800000000001" height="30" as="geometry">
            <mxRectangle width="262.8800000000001" height="30" as="alternateBounds" />
          </mxGeometry>
        </mxCell>
        <mxCell id="cN46fnsZ54RdRkZos_jZ-902" value="F_HOSPITALIZACAO" style="shape=table;startSize=30;container=1;collapsible=1;childLayout=tableLayout;fixedRows=1;rowLines=0;fontStyle=1;align=center;resizeLast=1;html=1;" vertex="1" parent="1">
          <mxGeometry x="-68" y="544.5" width="330" height="688.75" as="geometry" />
        </mxCell>
        <mxCell id="cN46fnsZ54RdRkZos_jZ-903" value="" style="shape=tableRow;horizontal=0;startSize=0;swimlaneHead=0;swimlaneBody=0;fillColor=none;collapsible=0;dropTarget=0;points=[[0,0.5],[1,0.5]];portConstraint=eastwest;top=0;left=0;right=0;bottom=1;" vertex="1" parent="cN46fnsZ54RdRkZos_jZ-902">
          <mxGeometry y="30" width="330" height="30" as="geometry" />
        </mxCell>
        <mxCell id="cN46fnsZ54RdRkZos_jZ-904" value="int" style="shape=partialRectangle;connectable=0;fillColor=none;top=0;left=0;bottom=0;right=0;fontStyle=1;overflow=hidden;whiteSpace=wrap;html=1;" vertex="1" parent="cN46fnsZ54RdRkZos_jZ-903">
          <mxGeometry width="65.75" height="30" as="geometry">
            <mxRectangle width="65.75" height="30" as="alternateBounds" />
          </mxGeometry>
        </mxCell>
        <mxCell id="cN46fnsZ54RdRkZos_jZ-905" value="SK_MUNICIPIO_ESTABELECIMENTO" style="shape=partialRectangle;connectable=0;fillColor=none;top=0;left=0;bottom=0;right=0;align=left;spacingLeft=6;fontStyle=5;overflow=hidden;whiteSpace=wrap;html=1;" vertex="1" parent="cN46fnsZ54RdRkZos_jZ-903">
          <mxGeometry x="65.75" width="264.25" height="30" as="geometry">
            <mxRectangle width="264.25" height="30" as="alternateBounds" />
          </mxGeometry>
        </mxCell>
        <mxCell id="cN46fnsZ54RdRkZos_jZ-906" value="" style="shape=tableRow;horizontal=0;startSize=0;swimlaneHead=0;swimlaneBody=0;fillColor=none;collapsible=0;dropTarget=0;points=[[0,0.5],[1,0.5]];portConstraint=eastwest;top=0;left=0;right=0;bottom=1;" vertex="1" parent="cN46fnsZ54RdRkZos_jZ-902">
          <mxGeometry y="60" width="330" height="30" as="geometry" />
        </mxCell>
        <mxCell id="cN46fnsZ54RdRkZos_jZ-907" value="int" style="shape=partialRectangle;connectable=0;fillColor=none;top=0;left=0;bottom=0;right=0;fontStyle=1;overflow=hidden;whiteSpace=wrap;html=1;" vertex="1" parent="cN46fnsZ54RdRkZos_jZ-906">
          <mxGeometry width="65.75" height="30" as="geometry">
            <mxRectangle width="65.75" height="30" as="alternateBounds" />
          </mxGeometry>
        </mxCell>
        <mxCell id="cN46fnsZ54RdRkZos_jZ-908" value="SK_MUNICIPIO_RESIDENCIA_PACIENTE" style="shape=partialRectangle;connectable=0;fillColor=none;top=0;left=0;bottom=0;right=0;align=left;spacingLeft=6;fontStyle=5;overflow=hidden;whiteSpace=wrap;html=1;" vertex="1" parent="cN46fnsZ54RdRkZos_jZ-906">
          <mxGeometry x="65.75" width="264.25" height="30" as="geometry">
            <mxRectangle width="264.25" height="30" as="alternateBounds" />
          </mxGeometry>
        </mxCell>
        <mxCell id="cN46fnsZ54RdRkZos_jZ-909" value="" style="shape=tableRow;horizontal=0;startSize=0;swimlaneHead=0;swimlaneBody=0;fillColor=none;collapsible=0;dropTarget=0;points=[[0,0.5],[1,0.5]];portConstraint=eastwest;top=0;left=0;right=0;bottom=1;" vertex="1" parent="cN46fnsZ54RdRkZos_jZ-902">
          <mxGeometry y="90" width="330" height="30" as="geometry" />
        </mxCell>
        <mxCell id="cN46fnsZ54RdRkZos_jZ-910" value="int" style="shape=partialRectangle;connectable=0;fillColor=none;top=0;left=0;bottom=0;right=0;fontStyle=1;overflow=hidden;whiteSpace=wrap;html=1;" vertex="1" parent="cN46fnsZ54RdRkZos_jZ-909">
          <mxGeometry width="65.75" height="30" as="geometry">
            <mxRectangle width="65.75" height="30" as="alternateBounds" />
          </mxGeometry>
        </mxCell>
        <mxCell id="cN46fnsZ54RdRkZos_jZ-911" value="SK_ESTABELECIMENTO" style="shape=partialRectangle;connectable=0;fillColor=none;top=0;left=0;bottom=0;right=0;align=left;spacingLeft=6;fontStyle=5;overflow=hidden;whiteSpace=wrap;html=1;" vertex="1" parent="cN46fnsZ54RdRkZos_jZ-909">
          <mxGeometry x="65.75" width="264.25" height="30" as="geometry">
            <mxRectangle width="264.25" height="30" as="alternateBounds" />
          </mxGeometry>
        </mxCell>
        <mxCell id="cN46fnsZ54RdRkZos_jZ-924" value="" style="shape=tableRow;horizontal=0;startSize=0;swimlaneHead=0;swimlaneBody=0;fillColor=none;collapsible=0;dropTarget=0;points=[[0,0.5],[1,0.5]];portConstraint=eastwest;top=0;left=0;right=0;bottom=1;" vertex="1" parent="cN46fnsZ54RdRkZos_jZ-902">
          <mxGeometry y="120" width="330" height="30" as="geometry" />
        </mxCell>
        <mxCell id="cN46fnsZ54RdRkZos_jZ-925" value="int" style="shape=partialRectangle;connectable=0;fillColor=none;top=0;left=0;bottom=0;right=0;fontStyle=1;overflow=hidden;whiteSpace=wrap;html=1;" vertex="1" parent="cN46fnsZ54RdRkZos_jZ-924">
          <mxGeometry width="65.75" height="30" as="geometry">
            <mxRectangle width="65.75" height="30" as="alternateBounds" />
          </mxGeometry>
        </mxCell>
        <mxCell id="cN46fnsZ54RdRkZos_jZ-926" value="SK_OCUPACAO" style="shape=partialRectangle;connectable=0;fillColor=none;top=0;left=0;bottom=0;right=0;align=left;spacingLeft=6;fontStyle=5;overflow=hidden;whiteSpace=wrap;html=1;" vertex="1" parent="cN46fnsZ54RdRkZos_jZ-924">
          <mxGeometry x="65.75" width="264.25" height="30" as="geometry">
            <mxRectangle width="264.25" height="30" as="alternateBounds" />
          </mxGeometry>
        </mxCell>
        <mxCell id="cN46fnsZ54RdRkZos_jZ-921" value="" style="shape=tableRow;horizontal=0;startSize=0;swimlaneHead=0;swimlaneBody=0;fillColor=none;collapsible=0;dropTarget=0;points=[[0,0.5],[1,0.5]];portConstraint=eastwest;top=0;left=0;right=0;bottom=1;" vertex="1" parent="cN46fnsZ54RdRkZos_jZ-902">
          <mxGeometry y="150" width="330" height="30" as="geometry" />
        </mxCell>
        <mxCell id="cN46fnsZ54RdRkZos_jZ-922" value="int" style="shape=partialRectangle;connectable=0;fillColor=none;top=0;left=0;bottom=0;right=0;fontStyle=1;overflow=hidden;whiteSpace=wrap;html=1;" vertex="1" parent="cN46fnsZ54RdRkZos_jZ-921">
          <mxGeometry width="65.75" height="30" as="geometry">
            <mxRectangle width="65.75" height="30" as="alternateBounds" />
          </mxGeometry>
        </mxCell>
        <mxCell id="cN46fnsZ54RdRkZos_jZ-923" value="SK_RACA_COR" style="shape=partialRectangle;connectable=0;fillColor=none;top=0;left=0;bottom=0;right=0;align=left;spacingLeft=6;fontStyle=5;overflow=hidden;whiteSpace=wrap;html=1;" vertex="1" parent="cN46fnsZ54RdRkZos_jZ-921">
          <mxGeometry x="65.75" width="264.25" height="30" as="geometry">
            <mxRectangle width="264.25" height="30" as="alternateBounds" />
          </mxGeometry>
        </mxCell>
        <mxCell id="cN46fnsZ54RdRkZos_jZ-918" value="" style="shape=tableRow;horizontal=0;startSize=0;swimlaneHead=0;swimlaneBody=0;fillColor=none;collapsible=0;dropTarget=0;points=[[0,0.5],[1,0.5]];portConstraint=eastwest;top=0;left=0;right=0;bottom=1;" vertex="1" parent="cN46fnsZ54RdRkZos_jZ-902">
          <mxGeometry y="180" width="330" height="30" as="geometry" />
        </mxCell>
        <mxCell id="cN46fnsZ54RdRkZos_jZ-919" value="int" style="shape=partialRectangle;connectable=0;fillColor=none;top=0;left=0;bottom=0;right=0;fontStyle=1;overflow=hidden;whiteSpace=wrap;html=1;" vertex="1" parent="cN46fnsZ54RdRkZos_jZ-918">
          <mxGeometry width="65.75" height="30" as="geometry">
            <mxRectangle width="65.75" height="30" as="alternateBounds" />
          </mxGeometry>
        </mxCell>
        <mxCell id="cN46fnsZ54RdRkZos_jZ-920" value="SK_SEXO" style="shape=partialRectangle;connectable=0;fillColor=none;top=0;left=0;bottom=0;right=0;align=left;spacingLeft=6;fontStyle=5;overflow=hidden;whiteSpace=wrap;html=1;" vertex="1" parent="cN46fnsZ54RdRkZos_jZ-918">
          <mxGeometry x="65.75" width="264.25" height="30" as="geometry">
            <mxRectangle width="264.25" height="30" as="alternateBounds" />
          </mxGeometry>
        </mxCell>
        <mxCell id="cN46fnsZ54RdRkZos_jZ-927" value="" style="shape=tableRow;horizontal=0;startSize=0;swimlaneHead=0;swimlaneBody=0;fillColor=none;collapsible=0;dropTarget=0;points=[[0,0.5],[1,0.5]];portConstraint=eastwest;top=0;left=0;right=0;bottom=1;" vertex="1" parent="cN46fnsZ54RdRkZos_jZ-902">
          <mxGeometry y="210" width="330" height="30" as="geometry" />
        </mxCell>
        <mxCell id="cN46fnsZ54RdRkZos_jZ-928" value="int" style="shape=partialRectangle;connectable=0;fillColor=none;top=0;left=0;bottom=0;right=0;fontStyle=1;overflow=hidden;whiteSpace=wrap;html=1;" vertex="1" parent="cN46fnsZ54RdRkZos_jZ-927">
          <mxGeometry width="65.75" height="30" as="geometry">
            <mxRectangle width="65.75" height="30" as="alternateBounds" />
          </mxGeometry>
        </mxCell>
        <mxCell id="cN46fnsZ54RdRkZos_jZ-929" value="SK_PROCEDIMENTO_SOLICITADO" style="shape=partialRectangle;connectable=0;fillColor=none;top=0;left=0;bottom=0;right=0;align=left;spacingLeft=6;fontStyle=5;overflow=hidden;whiteSpace=wrap;html=1;" vertex="1" parent="cN46fnsZ54RdRkZos_jZ-927">
          <mxGeometry x="65.75" width="264.25" height="30" as="geometry">
            <mxRectangle width="264.25" height="30" as="alternateBounds" />
          </mxGeometry>
        </mxCell>
        <mxCell id="cN46fnsZ54RdRkZos_jZ-930" value="" style="shape=tableRow;horizontal=0;startSize=0;swimlaneHead=0;swimlaneBody=0;fillColor=none;collapsible=0;dropTarget=0;points=[[0,0.5],[1,0.5]];portConstraint=eastwest;top=0;left=0;right=0;bottom=1;" vertex="1" parent="cN46fnsZ54RdRkZos_jZ-902">
          <mxGeometry y="240" width="330" height="30" as="geometry" />
        </mxCell>
        <mxCell id="cN46fnsZ54RdRkZos_jZ-931" value="int" style="shape=partialRectangle;connectable=0;fillColor=none;top=0;left=0;bottom=0;right=0;fontStyle=1;overflow=hidden;whiteSpace=wrap;html=1;" vertex="1" parent="cN46fnsZ54RdRkZos_jZ-930">
          <mxGeometry width="65.75" height="30" as="geometry">
            <mxRectangle width="65.75" height="30" as="alternateBounds" />
          </mxGeometry>
        </mxCell>
        <mxCell id="cN46fnsZ54RdRkZos_jZ-932" value="SK_PROCEDIMENTO_REALIZADO" style="shape=partialRectangle;connectable=0;fillColor=none;top=0;left=0;bottom=0;right=0;align=left;spacingLeft=6;fontStyle=5;overflow=hidden;whiteSpace=wrap;html=1;" vertex="1" parent="cN46fnsZ54RdRkZos_jZ-930">
          <mxGeometry x="65.75" width="264.25" height="30" as="geometry">
            <mxRectangle width="264.25" height="30" as="alternateBounds" />
          </mxGeometry>
        </mxCell>
        <mxCell id="cN46fnsZ54RdRkZos_jZ-933" value="" style="shape=tableRow;horizontal=0;startSize=0;swimlaneHead=0;swimlaneBody=0;fillColor=none;collapsible=0;dropTarget=0;points=[[0,0.5],[1,0.5]];portConstraint=eastwest;top=0;left=0;right=0;bottom=1;" vertex="1" parent="cN46fnsZ54RdRkZos_jZ-902">
          <mxGeometry y="270" width="330" height="30" as="geometry" />
        </mxCell>
        <mxCell id="cN46fnsZ54RdRkZos_jZ-934" value="int" style="shape=partialRectangle;connectable=0;fillColor=none;top=0;left=0;bottom=0;right=0;fontStyle=1;overflow=hidden;whiteSpace=wrap;html=1;" vertex="1" parent="cN46fnsZ54RdRkZos_jZ-933">
          <mxGeometry width="65.75" height="30" as="geometry">
            <mxRectangle width="65.75" height="30" as="alternateBounds" />
          </mxGeometry>
        </mxCell>
        <mxCell id="cN46fnsZ54RdRkZos_jZ-935" value="SK_ESPECIALIDADE_LEITO" style="shape=partialRectangle;connectable=0;fillColor=none;top=0;left=0;bottom=0;right=0;align=left;spacingLeft=6;fontStyle=5;overflow=hidden;whiteSpace=wrap;html=1;" vertex="1" parent="cN46fnsZ54RdRkZos_jZ-933">
          <mxGeometry x="65.75" width="264.25" height="30" as="geometry">
            <mxRectangle width="264.25" height="30" as="alternateBounds" />
          </mxGeometry>
        </mxCell>
        <mxCell id="cN46fnsZ54RdRkZos_jZ-912" value="" style="shape=tableRow;horizontal=0;startSize=0;swimlaneHead=0;swimlaneBody=0;fillColor=none;collapsible=0;dropTarget=0;points=[[0,0.5],[1,0.5]];portConstraint=eastwest;top=0;left=0;right=0;bottom=1;" vertex="1" parent="cN46fnsZ54RdRkZos_jZ-902">
          <mxGeometry y="300" width="330" height="30" as="geometry" />
        </mxCell>
        <mxCell id="cN46fnsZ54RdRkZos_jZ-913" value="int" style="shape=partialRectangle;connectable=0;fillColor=none;top=0;left=0;bottom=0;right=0;fontStyle=1;overflow=hidden;whiteSpace=wrap;html=1;" vertex="1" parent="cN46fnsZ54RdRkZos_jZ-912">
          <mxGeometry width="65.75" height="30" as="geometry">
            <mxRectangle width="65.75" height="30" as="alternateBounds" />
          </mxGeometry>
        </mxCell>
        <mxCell id="cN46fnsZ54RdRkZos_jZ-914" value="SK_CID_DIAGNOSTICO_PRIMARIO" style="shape=partialRectangle;connectable=0;fillColor=none;top=0;left=0;bottom=0;right=0;align=left;spacingLeft=6;fontStyle=5;overflow=hidden;whiteSpace=wrap;html=1;" vertex="1" parent="cN46fnsZ54RdRkZos_jZ-912">
          <mxGeometry x="65.75" width="264.25" height="30" as="geometry">
            <mxRectangle width="264.25" height="30" as="alternateBounds" />
          </mxGeometry>
        </mxCell>
        <mxCell id="cN46fnsZ54RdRkZos_jZ-915" value="" style="shape=tableRow;horizontal=0;startSize=0;swimlaneHead=0;swimlaneBody=0;fillColor=none;collapsible=0;dropTarget=0;points=[[0,0.5],[1,0.5]];portConstraint=eastwest;top=0;left=0;right=0;bottom=1;" vertex="1" parent="cN46fnsZ54RdRkZos_jZ-902">
          <mxGeometry y="330" width="330" height="30" as="geometry" />
        </mxCell>
        <mxCell id="cN46fnsZ54RdRkZos_jZ-916" value="int" style="shape=partialRectangle;connectable=0;fillColor=none;top=0;left=0;bottom=0;right=0;fontStyle=1;overflow=hidden;whiteSpace=wrap;html=1;" vertex="1" parent="cN46fnsZ54RdRkZos_jZ-915">
          <mxGeometry width="65.75" height="30" as="geometry">
            <mxRectangle width="65.75" height="30" as="alternateBounds" />
          </mxGeometry>
        </mxCell>
        <mxCell id="cN46fnsZ54RdRkZos_jZ-917" value="SK_CID_DIAGNOSTICO_SECUNDARIO" style="shape=partialRectangle;connectable=0;fillColor=none;top=0;left=0;bottom=0;right=0;align=left;spacingLeft=6;fontStyle=5;overflow=hidden;whiteSpace=wrap;html=1;" vertex="1" parent="cN46fnsZ54RdRkZos_jZ-915">
          <mxGeometry x="65.75" width="264.25" height="30" as="geometry">
            <mxRectangle width="264.25" height="30" as="alternateBounds" />
          </mxGeometry>
        </mxCell>
        <mxCell id="cN46fnsZ54RdRkZos_jZ-936" value="" style="shape=tableRow;horizontal=0;startSize=0;swimlaneHead=0;swimlaneBody=0;fillColor=none;collapsible=0;dropTarget=0;points=[[0,0.5],[1,0.5]];portConstraint=eastwest;top=0;left=0;right=0;bottom=0;" vertex="1" parent="cN46fnsZ54RdRkZos_jZ-902">
          <mxGeometry y="360" width="330" height="30" as="geometry" />
        </mxCell>
        <mxCell id="cN46fnsZ54RdRkZos_jZ-937" value="text" style="shape=partialRectangle;connectable=0;fillColor=none;top=0;left=0;bottom=0;right=0;editable=1;overflow=hidden;whiteSpace=wrap;html=1;" vertex="1" parent="cN46fnsZ54RdRkZos_jZ-936">
          <mxGeometry width="65.75" height="30" as="geometry">
            <mxRectangle width="65.75" height="30" as="alternateBounds" />
          </mxGeometry>
        </mxCell>
        <mxCell id="cN46fnsZ54RdRkZos_jZ-938" value="NU_COMPETENCIA" style="shape=partialRectangle;connectable=0;fillColor=none;top=0;left=0;bottom=0;right=0;align=left;spacingLeft=6;overflow=hidden;whiteSpace=wrap;html=1;" vertex="1" parent="cN46fnsZ54RdRkZos_jZ-936">
          <mxGeometry x="65.75" width="264.25" height="30" as="geometry">
            <mxRectangle width="264.25" height="30" as="alternateBounds" />
          </mxGeometry>
        </mxCell>
        <mxCell id="cN46fnsZ54RdRkZos_jZ-939" value="" style="shape=tableRow;horizontal=0;startSize=0;swimlaneHead=0;swimlaneBody=0;fillColor=none;collapsible=0;dropTarget=0;points=[[0,0.5],[1,0.5]];portConstraint=eastwest;top=0;left=0;right=0;bottom=0;" vertex="1" parent="cN46fnsZ54RdRkZos_jZ-902">
          <mxGeometry y="390" width="330" height="30" as="geometry" />
        </mxCell>
        <mxCell id="cN46fnsZ54RdRkZos_jZ-940" value="int" style="shape=partialRectangle;connectable=0;fillColor=none;top=0;left=0;bottom=0;right=0;editable=1;overflow=hidden;whiteSpace=wrap;html=1;" vertex="1" parent="cN46fnsZ54RdRkZos_jZ-939">
          <mxGeometry width="65.75" height="30" as="geometry">
            <mxRectangle width="65.75" height="30" as="alternateBounds" />
          </mxGeometry>
        </mxCell>
        <mxCell id="cN46fnsZ54RdRkZos_jZ-941" value="NU_AIH" style="shape=partialRectangle;connectable=0;fillColor=none;top=0;left=0;bottom=0;right=0;align=left;spacingLeft=6;overflow=hidden;whiteSpace=wrap;html=1;" vertex="1" parent="cN46fnsZ54RdRkZos_jZ-939">
          <mxGeometry x="65.75" width="264.25" height="30" as="geometry">
            <mxRectangle width="264.25" height="30" as="alternateBounds" />
          </mxGeometry>
        </mxCell>
        <mxCell id="cN46fnsZ54RdRkZos_jZ-942" value="" style="shape=tableRow;horizontal=0;startSize=0;swimlaneHead=0;swimlaneBody=0;fillColor=none;collapsible=0;dropTarget=0;points=[[0,0.5],[1,0.5]];portConstraint=eastwest;top=0;left=0;right=0;bottom=0;" vertex="1" parent="cN46fnsZ54RdRkZos_jZ-902">
          <mxGeometry y="420" width="330" height="30" as="geometry" />
        </mxCell>
        <mxCell id="cN46fnsZ54RdRkZos_jZ-943" value="text" style="shape=partialRectangle;connectable=0;fillColor=none;top=0;left=0;bottom=0;right=0;editable=1;overflow=hidden;whiteSpace=wrap;html=1;" vertex="1" parent="cN46fnsZ54RdRkZos_jZ-942">
          <mxGeometry width="65.75" height="30" as="geometry">
            <mxRectangle width="65.75" height="30" as="alternateBounds" />
          </mxGeometry>
        </mxCell>
        <mxCell id="cN46fnsZ54RdRkZos_jZ-944" value="DS_TIPO_AIH" style="shape=partialRectangle;connectable=0;fillColor=none;top=0;left=0;bottom=0;right=0;align=left;spacingLeft=6;overflow=hidden;whiteSpace=wrap;html=1;" vertex="1" parent="cN46fnsZ54RdRkZos_jZ-942">
          <mxGeometry x="65.75" width="264.25" height="30" as="geometry">
            <mxRectangle width="264.25" height="30" as="alternateBounds" />
          </mxGeometry>
        </mxCell>
        <mxCell id="cN46fnsZ54RdRkZos_jZ-945" value="" style="shape=tableRow;horizontal=0;startSize=0;swimlaneHead=0;swimlaneBody=0;fillColor=none;collapsible=0;dropTarget=0;points=[[0,0.5],[1,0.5]];portConstraint=eastwest;top=0;left=0;right=0;bottom=0;" vertex="1" parent="cN46fnsZ54RdRkZos_jZ-902">
          <mxGeometry y="450" width="330" height="28" as="geometry" />
        </mxCell>
        <mxCell id="cN46fnsZ54RdRkZos_jZ-946" value="date" style="shape=partialRectangle;connectable=0;fillColor=none;top=0;left=0;bottom=0;right=0;editable=1;overflow=hidden;whiteSpace=wrap;html=1;" vertex="1" parent="cN46fnsZ54RdRkZos_jZ-945">
          <mxGeometry width="65.75" height="28" as="geometry">
            <mxRectangle width="65.75" height="28" as="alternateBounds" />
          </mxGeometry>
        </mxCell>
        <mxCell id="cN46fnsZ54RdRkZos_jZ-947" value="DT_NASCIMENTO_PACIENTE" style="shape=partialRectangle;connectable=0;fillColor=none;top=0;left=0;bottom=0;right=0;align=left;spacingLeft=6;overflow=hidden;whiteSpace=wrap;html=1;" vertex="1" parent="cN46fnsZ54RdRkZos_jZ-945">
          <mxGeometry x="65.75" width="264.25" height="28" as="geometry">
            <mxRectangle width="264.25" height="28" as="alternateBounds" />
          </mxGeometry>
        </mxCell>
        <mxCell id="cN46fnsZ54RdRkZos_jZ-948" value="" style="shape=tableRow;horizontal=0;startSize=0;swimlaneHead=0;swimlaneBody=0;fillColor=none;collapsible=0;dropTarget=0;points=[[0,0.5],[1,0.5]];portConstraint=eastwest;top=0;left=0;right=0;bottom=0;" vertex="1" parent="cN46fnsZ54RdRkZos_jZ-902">
          <mxGeometry y="478" width="330" height="30" as="geometry" />
        </mxCell>
        <mxCell id="cN46fnsZ54RdRkZos_jZ-949" value="int" style="shape=partialRectangle;connectable=0;fillColor=none;top=0;left=0;bottom=0;right=0;editable=1;overflow=hidden;whiteSpace=wrap;html=1;" vertex="1" parent="cN46fnsZ54RdRkZos_jZ-948">
          <mxGeometry width="65.75" height="30" as="geometry">
            <mxRectangle width="65.75" height="30" as="alternateBounds" />
          </mxGeometry>
        </mxCell>
        <mxCell id="cN46fnsZ54RdRkZos_jZ-950" value="QTD_DIARIAS_INTERNACAO" style="shape=partialRectangle;connectable=0;fillColor=none;top=0;left=0;bottom=0;right=0;align=left;spacingLeft=6;overflow=hidden;whiteSpace=wrap;html=1;" vertex="1" parent="cN46fnsZ54RdRkZos_jZ-948">
          <mxGeometry x="65.75" width="264.25" height="30" as="geometry">
            <mxRectangle width="264.25" height="30" as="alternateBounds" />
          </mxGeometry>
        </mxCell>
        <mxCell id="cN46fnsZ54RdRkZos_jZ-951" value="" style="shape=tableRow;horizontal=0;startSize=0;swimlaneHead=0;swimlaneBody=0;fillColor=none;collapsible=0;dropTarget=0;points=[[0,0.5],[1,0.5]];portConstraint=eastwest;top=0;left=0;right=0;bottom=0;" vertex="1" parent="cN46fnsZ54RdRkZos_jZ-902">
          <mxGeometry y="508" width="330" height="30" as="geometry" />
        </mxCell>
        <mxCell id="cN46fnsZ54RdRkZos_jZ-952" value="float" style="shape=partialRectangle;connectable=0;fillColor=none;top=0;left=0;bottom=0;right=0;editable=1;overflow=hidden;whiteSpace=wrap;html=1;" vertex="1" parent="cN46fnsZ54RdRkZos_jZ-951">
          <mxGeometry width="65.75" height="30" as="geometry">
            <mxRectangle width="65.75" height="30" as="alternateBounds" />
          </mxGeometry>
        </mxCell>
        <mxCell id="cN46fnsZ54RdRkZos_jZ-953" value="VL_TOTAL_INTERNACAO" style="shape=partialRectangle;connectable=0;fillColor=none;top=0;left=0;bottom=0;right=0;align=left;spacingLeft=6;overflow=hidden;whiteSpace=wrap;html=1;" vertex="1" parent="cN46fnsZ54RdRkZos_jZ-951">
          <mxGeometry x="65.75" width="264.25" height="30" as="geometry">
            <mxRectangle width="264.25" height="30" as="alternateBounds" />
          </mxGeometry>
        </mxCell>
        <mxCell id="cN46fnsZ54RdRkZos_jZ-954" value="" style="shape=tableRow;horizontal=0;startSize=0;swimlaneHead=0;swimlaneBody=0;fillColor=none;collapsible=0;dropTarget=0;points=[[0,0.5],[1,0.5]];portConstraint=eastwest;top=0;left=0;right=0;bottom=0;" vertex="1" parent="cN46fnsZ54RdRkZos_jZ-902">
          <mxGeometry y="538" width="330" height="30" as="geometry" />
        </mxCell>
        <mxCell id="cN46fnsZ54RdRkZos_jZ-955" value="date" style="shape=partialRectangle;connectable=0;fillColor=none;top=0;left=0;bottom=0;right=0;editable=1;overflow=hidden;whiteSpace=wrap;html=1;" vertex="1" parent="cN46fnsZ54RdRkZos_jZ-954">
          <mxGeometry width="65.75" height="30" as="geometry">
            <mxRectangle width="65.75" height="30" as="alternateBounds" />
          </mxGeometry>
        </mxCell>
        <mxCell id="cN46fnsZ54RdRkZos_jZ-956" value="DT_INTERNACAO" style="shape=partialRectangle;connectable=0;fillColor=none;top=0;left=0;bottom=0;right=0;align=left;spacingLeft=6;overflow=hidden;whiteSpace=wrap;html=1;" vertex="1" parent="cN46fnsZ54RdRkZos_jZ-954">
          <mxGeometry x="65.75" width="264.25" height="30" as="geometry">
            <mxRectangle width="264.25" height="30" as="alternateBounds" />
          </mxGeometry>
        </mxCell>
        <mxCell id="cN46fnsZ54RdRkZos_jZ-957" value="" style="shape=tableRow;horizontal=0;startSize=0;swimlaneHead=0;swimlaneBody=0;fillColor=none;collapsible=0;dropTarget=0;points=[[0,0.5],[1,0.5]];portConstraint=eastwest;top=0;left=0;right=0;bottom=0;" vertex="1" parent="cN46fnsZ54RdRkZos_jZ-902">
          <mxGeometry y="568" width="330" height="30" as="geometry" />
        </mxCell>
        <mxCell id="cN46fnsZ54RdRkZos_jZ-958" value="date" style="shape=partialRectangle;connectable=0;fillColor=none;top=0;left=0;bottom=0;right=0;editable=1;overflow=hidden;whiteSpace=wrap;html=1;" vertex="1" parent="cN46fnsZ54RdRkZos_jZ-957">
          <mxGeometry width="65.75" height="30" as="geometry">
            <mxRectangle width="65.75" height="30" as="alternateBounds" />
          </mxGeometry>
        </mxCell>
        <mxCell id="cN46fnsZ54RdRkZos_jZ-959" value="DT_SAIDA" style="shape=partialRectangle;connectable=0;fillColor=none;top=0;left=0;bottom=0;right=0;align=left;spacingLeft=6;overflow=hidden;whiteSpace=wrap;html=1;" vertex="1" parent="cN46fnsZ54RdRkZos_jZ-957">
          <mxGeometry x="65.75" width="264.25" height="30" as="geometry">
            <mxRectangle width="264.25" height="30" as="alternateBounds" />
          </mxGeometry>
        </mxCell>
        <mxCell id="cN46fnsZ54RdRkZos_jZ-960" value="" style="shape=tableRow;horizontal=0;startSize=0;swimlaneHead=0;swimlaneBody=0;fillColor=none;collapsible=0;dropTarget=0;points=[[0,0.5],[1,0.5]];portConstraint=eastwest;top=0;left=0;right=0;bottom=0;" vertex="1" parent="cN46fnsZ54RdRkZos_jZ-902">
          <mxGeometry y="598" width="330" height="30" as="geometry" />
        </mxCell>
        <mxCell id="cN46fnsZ54RdRkZos_jZ-961" value="time" style="shape=partialRectangle;connectable=0;fillColor=none;top=0;left=0;bottom=0;right=0;editable=1;overflow=hidden;whiteSpace=wrap;html=1;" vertex="1" parent="cN46fnsZ54RdRkZos_jZ-960">
          <mxGeometry width="65.75" height="30" as="geometry">
            <mxRectangle width="65.75" height="30" as="alternateBounds" />
          </mxGeometry>
        </mxCell>
        <mxCell id="cN46fnsZ54RdRkZos_jZ-962" value="FL_OBITO" style="shape=partialRectangle;connectable=0;fillColor=none;top=0;left=0;bottom=0;right=0;align=left;spacingLeft=6;overflow=hidden;whiteSpace=wrap;html=1;" vertex="1" parent="cN46fnsZ54RdRkZos_jZ-960">
          <mxGeometry x="65.75" width="264.25" height="30" as="geometry">
            <mxRectangle width="264.25" height="30" as="alternateBounds" />
          </mxGeometry>
        </mxCell>
        <mxCell id="cN46fnsZ54RdRkZos_jZ-963" value="" style="shape=tableRow;horizontal=0;startSize=0;swimlaneHead=0;swimlaneBody=0;fillColor=none;collapsible=0;dropTarget=0;points=[[0,0.5],[1,0.5]];portConstraint=eastwest;top=0;left=0;right=0;bottom=0;" vertex="1" parent="cN46fnsZ54RdRkZos_jZ-902">
          <mxGeometry y="628" width="330" height="30" as="geometry" />
        </mxCell>
        <mxCell id="cN46fnsZ54RdRkZos_jZ-964" value="int" style="shape=partialRectangle;connectable=0;fillColor=none;top=0;left=0;bottom=0;right=0;editable=1;overflow=hidden;whiteSpace=wrap;html=1;" vertex="1" parent="cN46fnsZ54RdRkZos_jZ-963">
          <mxGeometry width="65.75" height="30" as="geometry">
            <mxRectangle width="65.75" height="30" as="alternateBounds" />
          </mxGeometry>
        </mxCell>
        <mxCell id="cN46fnsZ54RdRkZos_jZ-965" value="VL_IDADE_PACIENTE" style="shape=partialRectangle;connectable=0;fillColor=none;top=0;left=0;bottom=0;right=0;align=left;spacingLeft=6;overflow=hidden;whiteSpace=wrap;html=1;" vertex="1" parent="cN46fnsZ54RdRkZos_jZ-963">
          <mxGeometry x="65.75" width="264.25" height="30" as="geometry">
            <mxRectangle width="264.25" height="30" as="alternateBounds" />
          </mxGeometry>
        </mxCell>
        <mxCell id="cN46fnsZ54RdRkZos_jZ-966" value="" style="shape=tableRow;horizontal=0;startSize=0;swimlaneHead=0;swimlaneBody=0;fillColor=none;collapsible=0;dropTarget=0;points=[[0,0.5],[1,0.5]];portConstraint=eastwest;top=0;left=0;right=0;bottom=0;" vertex="1" parent="cN46fnsZ54RdRkZos_jZ-902">
          <mxGeometry y="658" width="330" height="30" as="geometry" />
        </mxCell>
        <mxCell id="cN46fnsZ54RdRkZos_jZ-967" value="timestamp" style="shape=partialRectangle;connectable=0;fillColor=none;top=0;left=0;bottom=0;right=0;editable=1;overflow=hidden;whiteSpace=wrap;html=1;" vertex="1" parent="cN46fnsZ54RdRkZos_jZ-966">
          <mxGeometry width="65.75" height="30" as="geometry">
            <mxRectangle width="65.75" height="30" as="alternateBounds" />
          </mxGeometry>
        </mxCell>
        <mxCell id="cN46fnsZ54RdRkZos_jZ-968" value="DT_CARGA" style="shape=partialRectangle;connectable=0;fillColor=none;top=0;left=0;bottom=0;right=0;align=left;spacingLeft=6;overflow=hidden;whiteSpace=wrap;html=1;" vertex="1" parent="cN46fnsZ54RdRkZos_jZ-966">
          <mxGeometry x="65.75" width="264.25" height="30" as="geometry">
            <mxRectangle width="264.25" height="30" as="alternateBounds" />
          </mxGeometry>
        </mxCell>
        <mxCell id="cN46fnsZ54RdRkZos_jZ-969" style="edgeStyle=orthogonalEdgeStyle;rounded=0;orthogonalLoop=1;jettySize=auto;html=1;exitX=1;exitY=0.5;exitDx=0;exitDy=0;entryX=1;entryY=0.5;entryDx=0;entryDy=0;endArrow=ERoneToMany;endFill=0;startArrow=ERone;startFill=0;" edge="1" parent="1" source="cN46fnsZ54RdRkZos_jZ-870" target="cN46fnsZ54RdRkZos_jZ-909">
          <mxGeometry relative="1" as="geometry">
            <Array as="points">
              <mxPoint x="300" y="365" />
              <mxPoint x="300" y="650" />
            </Array>
          </mxGeometry>
        </mxCell>
        <mxCell id="cN46fnsZ54RdRkZos_jZ-972" style="edgeStyle=orthogonalEdgeStyle;rounded=0;orthogonalLoop=1;jettySize=auto;html=1;exitX=0;exitY=0.5;exitDx=0;exitDy=0;endArrow=ERoneToMany;endFill=0;startArrow=ERone;startFill=0;" edge="1" parent="1" source="cN46fnsZ54RdRkZos_jZ-852" target="cN46fnsZ54RdRkZos_jZ-740">
          <mxGeometry relative="1" as="geometry">
            <Array as="points">
              <mxPoint x="-456" y="1241" />
              <mxPoint x="-512" y="1241" />
              <mxPoint x="-512" y="801" />
            </Array>
          </mxGeometry>
        </mxCell>
        <mxCell id="cN46fnsZ54RdRkZos_jZ-975" style="edgeStyle=orthogonalEdgeStyle;rounded=0;orthogonalLoop=1;jettySize=auto;html=1;exitX=1;exitY=0.5;exitDx=0;exitDy=0;entryX=0;entryY=0.5;entryDx=0;entryDy=0;endArrow=ERoneToMany;endFill=0;startArrow=ERone;startFill=0;" edge="1" parent="1" source="cN46fnsZ54RdRkZos_jZ-852" target="cN46fnsZ54RdRkZos_jZ-918">
          <mxGeometry relative="1" as="geometry">
            <Array as="points">
              <mxPoint x="-141" y="1242" />
              <mxPoint x="-141" y="740" />
            </Array>
          </mxGeometry>
        </mxCell>
        <mxCell id="cN46fnsZ54RdRkZos_jZ-977" style="edgeStyle=orthogonalEdgeStyle;rounded=0;orthogonalLoop=1;jettySize=auto;html=1;exitX=1;exitY=0.5;exitDx=0;exitDy=0;entryX=1;entryY=0.5;entryDx=0;entryDy=0;endArrow=ERoneToMany;endFill=0;startArrow=ERone;startFill=0;" edge="1" parent="1" source="cN46fnsZ54RdRkZos_jZ-890" target="cN46fnsZ54RdRkZos_jZ-930">
          <mxGeometry relative="1" as="geometry">
            <Array as="points">
              <mxPoint x="370" y="183" />
              <mxPoint x="370" y="800" />
            </Array>
          </mxGeometry>
        </mxCell>
        <mxCell id="cN46fnsZ54RdRkZos_jZ-979" value="D_ESPECIALIDADE" style="shape=table;startSize=30;container=1;collapsible=1;childLayout=tableLayout;fixedRows=1;rowLines=0;fontStyle=1;align=center;resizeLast=1;html=1;" vertex="1" parent="1">
          <mxGeometry x="-68" y="1276.5" width="330" height="151" as="geometry" />
        </mxCell>
        <mxCell id="cN46fnsZ54RdRkZos_jZ-980" value="" style="shape=tableRow;horizontal=0;startSize=0;swimlaneHead=0;swimlaneBody=0;fillColor=none;collapsible=0;dropTarget=0;points=[[0,0.5],[1,0.5]];portConstraint=eastwest;top=0;left=0;right=0;bottom=1;" vertex="1" parent="cN46fnsZ54RdRkZos_jZ-979">
          <mxGeometry y="30" width="330" height="30" as="geometry" />
        </mxCell>
        <mxCell id="cN46fnsZ54RdRkZos_jZ-981" value="int" style="shape=partialRectangle;connectable=0;fillColor=none;top=0;left=0;bottom=0;right=0;fontStyle=1;overflow=hidden;whiteSpace=wrap;html=1;" vertex="1" parent="cN46fnsZ54RdRkZos_jZ-980">
          <mxGeometry width="63.11999999999989" height="30" as="geometry">
            <mxRectangle width="63.11999999999989" height="30" as="alternateBounds" />
          </mxGeometry>
        </mxCell>
        <mxCell id="cN46fnsZ54RdRkZos_jZ-982" value="SK_ESPECIALIDADE" style="shape=partialRectangle;connectable=0;fillColor=none;top=0;left=0;bottom=0;right=0;align=left;spacingLeft=6;fontStyle=5;overflow=hidden;whiteSpace=wrap;html=1;" vertex="1" parent="cN46fnsZ54RdRkZos_jZ-980">
          <mxGeometry x="63.11999999999989" width="266.8800000000001" height="30" as="geometry">
            <mxRectangle width="266.8800000000001" height="30" as="alternateBounds" />
          </mxGeometry>
        </mxCell>
        <mxCell id="cN46fnsZ54RdRkZos_jZ-983" value="" style="shape=tableRow;horizontal=0;startSize=0;swimlaneHead=0;swimlaneBody=0;fillColor=none;collapsible=0;dropTarget=0;points=[[0,0.5],[1,0.5]];portConstraint=eastwest;top=0;left=0;right=0;bottom=0;" vertex="1" parent="cN46fnsZ54RdRkZos_jZ-979">
          <mxGeometry y="60" width="330" height="30" as="geometry" />
        </mxCell>
        <mxCell id="cN46fnsZ54RdRkZos_jZ-984" value="int" style="shape=partialRectangle;connectable=0;fillColor=none;top=0;left=0;bottom=0;right=0;editable=1;overflow=hidden;whiteSpace=wrap;html=1;" vertex="1" parent="cN46fnsZ54RdRkZos_jZ-983">
          <mxGeometry width="63.11999999999989" height="30" as="geometry">
            <mxRectangle width="63.11999999999989" height="30" as="alternateBounds" />
          </mxGeometry>
        </mxCell>
        <mxCell id="cN46fnsZ54RdRkZos_jZ-985" value="CD_ESPECIALIDADE" style="shape=partialRectangle;connectable=0;fillColor=none;top=0;left=0;bottom=0;right=0;align=left;spacingLeft=6;overflow=hidden;whiteSpace=wrap;html=1;" vertex="1" parent="cN46fnsZ54RdRkZos_jZ-983">
          <mxGeometry x="63.11999999999989" width="266.8800000000001" height="30" as="geometry">
            <mxRectangle width="266.8800000000001" height="30" as="alternateBounds" />
          </mxGeometry>
        </mxCell>
        <mxCell id="cN46fnsZ54RdRkZos_jZ-986" value="" style="shape=tableRow;horizontal=0;startSize=0;swimlaneHead=0;swimlaneBody=0;fillColor=none;collapsible=0;dropTarget=0;points=[[0,0.5],[1,0.5]];portConstraint=eastwest;top=0;left=0;right=0;bottom=0;" vertex="1" parent="cN46fnsZ54RdRkZos_jZ-979">
          <mxGeometry y="90" width="330" height="30" as="geometry" />
        </mxCell>
        <mxCell id="cN46fnsZ54RdRkZos_jZ-987" value="text" style="shape=partialRectangle;connectable=0;fillColor=none;top=0;left=0;bottom=0;right=0;editable=1;overflow=hidden;whiteSpace=wrap;html=1;" vertex="1" parent="cN46fnsZ54RdRkZos_jZ-986">
          <mxGeometry width="63.11999999999989" height="30" as="geometry">
            <mxRectangle width="63.11999999999989" height="30" as="alternateBounds" />
          </mxGeometry>
        </mxCell>
        <mxCell id="cN46fnsZ54RdRkZos_jZ-988" value="DS_ESPECIALIDADE" style="shape=partialRectangle;connectable=0;fillColor=none;top=0;left=0;bottom=0;right=0;align=left;spacingLeft=6;overflow=hidden;whiteSpace=wrap;html=1;" vertex="1" parent="cN46fnsZ54RdRkZos_jZ-986">
          <mxGeometry x="63.11999999999989" width="266.8800000000001" height="30" as="geometry">
            <mxRectangle width="266.8800000000001" height="30" as="alternateBounds" />
          </mxGeometry>
        </mxCell>
        <mxCell id="cN46fnsZ54RdRkZos_jZ-989" value="" style="shape=tableRow;horizontal=0;startSize=0;swimlaneHead=0;swimlaneBody=0;fillColor=none;collapsible=0;dropTarget=0;points=[[0,0.5],[1,0.5]];portConstraint=eastwest;top=0;left=0;right=0;bottom=0;" vertex="1" parent="cN46fnsZ54RdRkZos_jZ-979">
          <mxGeometry y="120" width="330" height="30" as="geometry" />
        </mxCell>
        <mxCell id="cN46fnsZ54RdRkZos_jZ-990" value="timestamp" style="shape=partialRectangle;connectable=0;fillColor=none;top=0;left=0;bottom=0;right=0;editable=1;overflow=hidden;whiteSpace=wrap;html=1;" vertex="1" parent="cN46fnsZ54RdRkZos_jZ-989">
          <mxGeometry width="63.11999999999989" height="30" as="geometry">
            <mxRectangle width="63.11999999999989" height="30" as="alternateBounds" />
          </mxGeometry>
        </mxCell>
        <mxCell id="cN46fnsZ54RdRkZos_jZ-991" value="DT_CARGA" style="shape=partialRectangle;connectable=0;fillColor=none;top=0;left=0;bottom=0;right=0;align=left;spacingLeft=6;overflow=hidden;whiteSpace=wrap;html=1;" vertex="1" parent="cN46fnsZ54RdRkZos_jZ-989">
          <mxGeometry x="63.11999999999989" width="266.8800000000001" height="30" as="geometry">
            <mxRectangle width="266.8800000000001" height="30" as="alternateBounds" />
          </mxGeometry>
        </mxCell>
        <mxCell id="cN46fnsZ54RdRkZos_jZ-992" style="edgeStyle=orthogonalEdgeStyle;rounded=0;orthogonalLoop=1;jettySize=auto;html=1;exitX=1;exitY=0.5;exitDx=0;exitDy=0;entryX=1;entryY=0.5;entryDx=0;entryDy=0;endArrow=ERoneToMany;endFill=0;startArrow=ERone;startFill=0;" edge="1" parent="1" source="cN46fnsZ54RdRkZos_jZ-980" target="cN46fnsZ54RdRkZos_jZ-933">
          <mxGeometry relative="1" as="geometry">
            <Array as="points">
              <mxPoint x="324" y="1321" />
              <mxPoint x="324" y="830" />
              <mxPoint x="264" y="830" />
            </Array>
          </mxGeometry>
        </mxCell>
        <mxCell id="cN46fnsZ54RdRkZos_jZ-999" style="edgeStyle=orthogonalEdgeStyle;rounded=0;orthogonalLoop=1;jettySize=auto;html=1;exitX=1;exitY=0.5;exitDx=0;exitDy=0;endArrow=ERoneToMany;endFill=0;startArrow=ERone;startFill=0;" edge="1" parent="1" source="cN46fnsZ54RdRkZos_jZ-664" target="cN46fnsZ54RdRkZos_jZ-903">
          <mxGeometry relative="1" as="geometry">
            <Array as="points">
              <mxPoint x="-129" y="205" />
              <mxPoint x="-129" y="590" />
            </Array>
          </mxGeometry>
        </mxCell>
        <mxCell id="cN46fnsZ54RdRkZos_jZ-1000" style="edgeStyle=orthogonalEdgeStyle;rounded=0;orthogonalLoop=1;jettySize=auto;html=1;exitX=1;exitY=0.5;exitDx=0;exitDy=0;endArrow=ERoneToMany;endFill=0;startArrow=ERone;startFill=0;" edge="1" parent="1" source="cN46fnsZ54RdRkZos_jZ-667" target="cN46fnsZ54RdRkZos_jZ-906">
          <mxGeometry relative="1" as="geometry">
            <Array as="points">
              <mxPoint x="-174" y="235" />
              <mxPoint x="-174" y="620" />
            </Array>
          </mxGeometry>
        </mxCell>
        <mxCell id="cN46fnsZ54RdRkZos_jZ-1001" style="edgeStyle=orthogonalEdgeStyle;rounded=0;orthogonalLoop=1;jettySize=auto;html=1;exitX=1;exitY=0.5;exitDx=0;exitDy=0;endArrow=ERoneToMany;endFill=0;startArrow=ERone;startFill=0;" edge="1" parent="1" source="cN46fnsZ54RdRkZos_jZ-784" target="cN46fnsZ54RdRkZos_jZ-924">
          <mxGeometry relative="1" as="geometry">
            <Array as="points">
              <mxPoint x="-175" y="850" />
              <mxPoint x="-175" y="680" />
            </Array>
          </mxGeometry>
        </mxCell>
        <mxCell id="cN46fnsZ54RdRkZos_jZ-1002" style="edgeStyle=orthogonalEdgeStyle;rounded=0;orthogonalLoop=1;jettySize=auto;html=1;exitX=1;exitY=0.5;exitDx=0;exitDy=0;endArrow=ERoneToMany;endFill=0;startArrow=ERone;startFill=0;" edge="1" parent="1" source="cN46fnsZ54RdRkZos_jZ-839" target="cN46fnsZ54RdRkZos_jZ-921">
          <mxGeometry relative="1" as="geometry">
            <Array as="points">
              <mxPoint x="-160" y="1076" />
              <mxPoint x="-160" y="710" />
            </Array>
          </mxGeometry>
        </mxCell>
        <mxCell id="cN46fnsZ54RdRkZos_jZ-1003" style="edgeStyle=orthogonalEdgeStyle;rounded=0;orthogonalLoop=1;jettySize=auto;html=1;exitX=1;exitY=0.5;exitDx=0;exitDy=0;entryX=0;entryY=0.5;entryDx=0;entryDy=0;endArrow=ERoneToMany;endFill=0;startArrow=ERone;startFill=0;" edge="1" parent="1" source="cN46fnsZ54RdRkZos_jZ-797" target="cN46fnsZ54RdRkZos_jZ-912">
          <mxGeometry relative="1" as="geometry">
            <Array as="points">
              <mxPoint x="-125" y="1424" />
              <mxPoint x="-125" y="860" />
            </Array>
          </mxGeometry>
        </mxCell>
        <mxCell id="cN46fnsZ54RdRkZos_jZ-1004" style="edgeStyle=orthogonalEdgeStyle;rounded=0;orthogonalLoop=1;jettySize=auto;html=1;exitX=1;exitY=0.5;exitDx=0;exitDy=0;endArrow=ERoneToMany;endFill=0;startArrow=ERone;startFill=0;" edge="1" parent="1" source="cN46fnsZ54RdRkZos_jZ-800" target="cN46fnsZ54RdRkZos_jZ-915">
          <mxGeometry relative="1" as="geometry">
            <Array as="points">
              <mxPoint x="-92" y="1454" />
              <mxPoint x="-92" y="890" />
            </Array>
          </mxGeometry>
        </mxCell>
        <mxCell id="cN46fnsZ54RdRkZos_jZ-997" style="edgeStyle=orthogonalEdgeStyle;rounded=0;orthogonalLoop=1;jettySize=auto;html=1;endArrow=ERoneToMany;endFill=0;startArrow=ERone;startFill=0;entryX=1;entryY=0.5;entryDx=0;entryDy=0;" edge="1" parent="1" source="cN46fnsZ54RdRkZos_jZ-670" target="cN46fnsZ54RdRkZos_jZ-728">
          <mxGeometry relative="1" as="geometry">
            <Array as="points">
              <mxPoint x="-481" y="265" />
              <mxPoint x="-481" y="681" />
            </Array>
          </mxGeometry>
        </mxCell>
        <mxCell id="cN46fnsZ54RdRkZos_jZ-995" style="edgeStyle=orthogonalEdgeStyle;rounded=0;orthogonalLoop=1;jettySize=auto;html=1;exitX=0;exitY=0.5;exitDx=0;exitDy=0;entryX=1;entryY=0.5;entryDx=0;entryDy=0;endArrow=ERoneToMany;endFill=0;startArrow=ERone;startFill=0;" edge="1" parent="1" source="cN46fnsZ54RdRkZos_jZ-667" target="cN46fnsZ54RdRkZos_jZ-725">
          <mxGeometry relative="1" as="geometry">
            <Array as="points">
              <mxPoint x="-505" y="235" />
              <mxPoint x="-505" y="651" />
            </Array>
          </mxGeometry>
        </mxCell>
        <mxCell id="cN46fnsZ54RdRkZos_jZ-993" style="edgeStyle=orthogonalEdgeStyle;rounded=0;orthogonalLoop=1;jettySize=auto;html=1;exitX=0;exitY=0.5;exitDx=0;exitDy=0;entryX=1;entryY=0.5;entryDx=0;entryDy=0;endArrow=ERoneToMany;endFill=0;startArrow=ERone;startFill=0;" edge="1" parent="1" source="cN46fnsZ54RdRkZos_jZ-664" target="cN46fnsZ54RdRkZos_jZ-722">
          <mxGeometry relative="1" as="geometry">
            <Array as="points">
              <mxPoint x="-536" y="205" />
              <mxPoint x="-536" y="621" />
            </Array>
          </mxGeometry>
        </mxCell>
      </root>
    </mxGraphModel>
  </diagram>
</mxfile>
